<?xml version="1.0" encoding="UTF-8" standalone="no"?>
<!-- Created with Inkscape (http://www.inkscape.org/) -->

<svg
   xmlns:dc="http://purl.org/dc/elements/1.1/"
   xmlns:cc="http://creativecommons.org/ns#"
   xmlns:rdf="http://www.w3.org/1999/02/22-rdf-syntax-ns#"
   xmlns:svg="http://www.w3.org/2000/svg"
   xmlns="http://www.w3.org/2000/svg"
   xmlns:sodipodi="http://sodipodi.sourceforge.net/DTD/sodipodi-0.dtd"
   xmlns:inkscape="http://www.inkscape.org/namespaces/inkscape"
   width="1615.5498"
   height="1024"
   id="svg2"
   version="1.1"
   inkscape:version="0.48.5 r10040"
   sodipodi:docname="pink monster.svg"
   inkscape:export-filename="C:\Documents and Settings\scott brooks\Desktop\digital sketches\lil monster  fat leg short.png"
   inkscape:export-xdpi="90"
   inkscape:export-ydpi="90">
  <defs
     id="defs4" />
  <sodipodi:namedview
     id="base"
     pagecolor="#959595"
     bordercolor="#666666"
     borderopacity="1.0"
     inkscape:pageopacity="0"
     inkscape:pageshadow="2"
     inkscape:zoom="0.70710678"
     inkscape:cx="738.61475"
     inkscape:cy="387.45454"
     inkscape:document-units="px"
     inkscape:current-layer="layer1"
     showgrid="false"
     inkscape:window-width="1920"
     inkscape:window-height="1018"
     inkscape:window-x="-8"
     inkscape:window-y="-8"
     inkscape:window-maximized="1"
     inkscape:showpageshadow="false"
     fit-margin-top="0"
     fit-margin-left="0"
     fit-margin-right="0"
     fit-margin-bottom="0" />
  <metadata
     id="metadata7">
    <rdf:RDF>
      <cc:Work
         rdf:about="">
        <dc:format>image/svg+xml</dc:format>
        <dc:type
           rdf:resource="http://purl.org/dc/dcmitype/StillImage" />
        <dc:title></dc:title>
      </cc:Work>
    </rdf:RDF>
  </metadata>
  <g
     inkscape:label="Layer 1"
     inkscape:groupmode="layer"
     id="layer1"
     transform="translate(-13.160859,-344.70532)">
    <g
       id="g4498"
       inkscape:transform-center-x="22.324392"
       inkscape:transform-center-y="42.625961"
       transform="matrix(0.99264702,-0.12104503,0.12104503,0.99264702,-1222.5494,240.94017)">
      <path
         style="fill:none;stroke:#000000;stroke-width:9;stroke-miterlimit:4;stroke-opacity:1;stroke-dasharray:none"
         d="m 1262.6441,478.32031 c -11.313,11.08724 -1.5271,19.57166 -17.348,38.17311 -15.821,18.60145 -43.6017,31.15321 -38.8196,40.88148 3.832,7.79558 41.9292,6.68425 65.913,-4.85773 23.984,-11.54196 33.8546,-33.51458 33.8546,-33.51458 0,0 10.6742,-26.37384 -0.7015,-39.54335 -13.6147,-15.76144 -29.6251,-14.14754 -42.8985,-1.13893 z"
         id="path4500"
         inkscape:connector-curvature="0"
         sodipodi:nodetypes="sssscss"
         inkscape:transform-center-x="23.784441"
         inkscape:transform-center-y="31.074941" />
      <path
         inkscape:transform-center-y="31.074941"
         inkscape:transform-center-x="23.784441"
         sodipodi:nodetypes="ssssccs"
         inkscape:connector-curvature="0"
         id="path4502"
         d="m 1263.3941,471.57031 c -11.313,11.08728 -2.2771,26.32166 -18.098,44.92311 -15.821,18.60145 -43.6017,31.15321 -38.8196,40.88148 3.832,7.79558 41.9292,6.68425 65.913,-4.85773 23.984,-11.54196 33.8546,-33.51458 33.8546,-33.51458 17.611,-36.58758 -0.5731,-54.1217 -17.7588,-56.59139 -10.362,0.25208 -18.8994,3.09081 -25.0912,9.15911 z"
         style="fill:#ff4690;fill-opacity:1;stroke:none" />
      <path
         id="path4504"
         d="m 1313.2812,488.92468 c -25.1515,59.68591 -66.1429,64.08435 -106.3437,69.125 5.6862,7.03469 42.1803,5.66105 65.4375,-5.53125 23.984,-11.54196 33.875,-33.53125 33.875,-33.53125 5.8011,-12.05196 7.683,-22.00274 7.0312,-30.0625 z"
         style="opacity:0.14798207;fill:#000000;fill-opacity:1;fill-rule:nonzero;stroke:none"
         inkscape:connector-curvature="0" />
      <path
         id="path4506"
         transform="translate(0,352.36218)"
         d="m 1259.8438,123.90625 c -5.7676,10.55034 -0.8665,24.11565 -14.5626,40.21875 -7.6343,8.976 -17.9861,16.54132 -26.1874,23.0625 35.8178,-14.08984 41.7128,-27.9914 40.75,-63.28125 z"
         style="opacity:0.14798207;fill:#ffffff;fill-opacity:1;fill-rule:nonzero;stroke:none"
         inkscape:connector-curvature="0" />
    </g>
    <g
       id="g4313"
       transform="matrix(0.99995757,0.00921133,-0.00921133,0.99995757,-110.2184,11.595902)"
       inkscape:transform-center-y="92.967267"
       inkscape:transform-center-x="0.46750671">
      <path
         sodipodi:nodetypes="ccaccsc"
         inkscape:connector-curvature="0"
         id="path4315"
         d="m 242.78662,701.99368 c -5.57106,55.61531 -0.28994,112.64862 17.23366,171.28162 0,0 43.35115,9.40442 65.5561,9.9972 26.69519,0.71264 79.46394,-7.79354 79.46394,-7.79354 -1.90429,-76.99726 8.69258,-121.846 22.46031,-172.67869 -12.7574,-54.53842 -58.06722,-42.13434 -92.36899,-40.40809 -34.67748,1.74516 -76.08043,-12.97969 -92.34502,39.6015 z"
         style="fill:none;stroke:#000000;stroke-width:12;stroke-linecap:square;stroke-linejoin:round;stroke-miterlimit:4;stroke-opacity:1;stroke-dasharray:none" />
      <path
         style="fill:#ff4690;fill-opacity:1;fill-rule:nonzero;stroke:none"
         d="m 242.78662,701.99368 c -5.57106,55.61531 -0.28994,112.64862 17.23366,171.28162 0,0 43.35115,9.40442 65.5561,9.9972 26.69519,0.71264 79.46394,-7.79354 79.46394,-7.79354 -1.90429,-76.99726 8.69258,-121.846 22.46031,-172.67869 0,0 8.02352,-57.87235 -92.80206,-58.44797 -96.30401,-0.54982 -91.91195,57.64138 -91.91195,57.64138 z"
         id="path4317"
         inkscape:connector-curvature="0"
         sodipodi:nodetypes="ccaccsc" />
      <path
         style="fill:#cccccc;fill-opacity:1;fill-rule:nonzero;stroke:#000000;stroke-width:4;stroke-miterlimit:4;stroke-opacity:1;stroke-dasharray:none"
         d="m 271.32427,844.73328 c -3.60597,0.25173 -7.1651,9.81458 -8.1847,22.37823 -0.0485,0.59706 -0.11659,1.18946 -0.15206,1.77915 1.71286,0.36593 6.25604,1.33893 13.95898,2.80615 0.0197,-0.22104 0.0543,-0.43225 0.0724,-0.65521 1.08758,-13.40122 -1.138,-25.14963 -4.97697,-26.2349 -0.23993,-0.0679 -0.47732,-0.0902 -0.71771,-0.0734 z"
         id="path4319"
         inkscape:connector-curvature="0" />
      <path
         style="fill:#cccccc;fill-opacity:1;fill-rule:nonzero;stroke:#000000;stroke-width:4;stroke-miterlimit:4;stroke-opacity:1;stroke-dasharray:none"
         d="m 296.01898,849.26526 c -6.60407,0.0241 -12.48098,10.17861 -13.29211,23.23823 -0.005,0.0947 10e-4,0.18669 -0.004,0.28121 7.66883,1.39842 16.31382,2.89089 24.66082,4.00015 0.0639,-0.62788 0.14528,-1.26086 0.18519,-1.90365 0.83729,-13.4809 -4.06417,-24.94833 -10.9247,-25.60644 -0.21439,-0.0206 -0.4119,-0.0105 -0.62493,-0.009 z"
         id="path4321"
         inkscape:connector-curvature="0" />
      <path
         inkscape:connector-curvature="0"
         style="opacity:0.08968608;fill:#000000;fill-opacity:1;fill-rule:nonzero;stroke:none"
         d="m 406.5,661.73718 c 19.34196,87.71209 -29.86569,147.2641 -94.0625,220.5 1.93727,0.21761 3.80692,0.40539 5.625,0.5625 1.05047,0.09 2.12661,0.18412 3.125,0.25 1.53727,0.10144 2.98719,0.1817 4.375,0.21875 3.3369,0.0891 7.096,0.039 11.09375,-0.125 3.99775,-0.16405 8.24313,-0.43322 12.59375,-0.78125 26.1037,-2.08821 55.78125,-6.875 55.78125,-6.875 -0.11902,-4.81233 -0.19508,-9.49207 -0.21875,-14.0625 -0.0118,-2.28521 -0.0111,-4.55302 0,-6.78125 0.0221,-4.41322 0.10982,-8.70295 0.21875,-12.90625 10e-4,-0.041 -10e-4,-0.084 0,-0.125 2.7e-4,-0.0105 -2.7e-4,-0.0208 0,-0.0312 0.0555,-2.12131 0.11076,-4.20993 0.1875,-6.28125 0.15339,-4.1425 0.35866,-8.16853 0.59375,-12.125 0.35263,-5.93471 0.78885,-11.68145 1.3125,-17.25 0.32995,-3.50875 0.70087,-6.92879 1.09375,-10.3125 0.0228,-0.19653 0.0395,-0.39761 0.0625,-0.59375 10e-4,-0.0104 -10e-4,-0.0209 0,-0.0312 0.20857,-1.77621 0.43115,-3.53605 0.65625,-5.28125 10e-4,-0.0103 -10e-4,-0.0209 0,-0.0312 0.0298,-0.23118 0.0636,-0.45684 0.0937,-0.6875 0.6546,-5.01172 1.37426,-9.92459 2.15625,-14.71875 0.5481,-3.36022 1.11364,-6.66135 1.71875,-9.9375 0.30161,-1.63325 0.62258,-3.2279 0.9375,-4.84375 1.25941,-6.46297 2.61283,-12.81609 4.0625,-19.09375 1.30436,-5.64843 2.6946,-11.23075 4.125,-16.84375 0.15897,-0.62385 0.30841,-1.25085 0.46875,-1.875 0.002,-0.01 -0.002,-0.0215 0,-0.0312 0.1655,-0.64412 0.33308,-1.29289 0.5,-1.9375 1.44844,-5.59333 2.95891,-11.21629 4.5,-16.90625 0,0 3.30111,-23.83204 -21,-41.0625 z"
         id="path4323" />
    </g>
    <path
       id="path4204"
       d="m 216.43554,409.06934 c -16.97044,-0.14507 -29.24552,8.89336 -31.34375,8.90625 -6.31909,0.0388 -27.04372,-15.04193 -52.3125,5.65625 -30.28193,24.80457 -11.15057,65.9986 -18.1875,82.9375 -27.371612,33.27462 -44.031252,77.23117 -44.031252,125.4375 0,103.82953 77.230882,188 172.500002,188 95.26912,0 172.5,-84.17047 172.5,-188 0,-92.79534 -61.69179,-169.88114 -142.8125,-185.21875 -1.81264,-0.94984 -3.24458,-2.05048 -4.15625,-3.375 -18.53424,-26.92742 -37.18233,-34.21575 -52.15625,-34.34375 z"
       style="fill:none;stroke:#000000;stroke-width:14;stroke-miterlimit:4;stroke-opacity:1;stroke-dasharray:none"
       inkscape:connector-curvature="0" />
    <path
       style="fill:#ff4690;fill-opacity:1;fill-rule:nonzero;stroke:none"
       d="m 216.43554,409.06934 c -16.97044,-0.14507 -29.24552,8.89336 -31.34375,8.90625 -6.31909,0.0388 -27.04372,-15.04193 -52.3125,5.65625 -30.28193,24.80457 -11.15057,65.9986 -18.1875,82.9375 -27.371612,33.27462 -44.031252,77.23117 -44.031252,125.4375 0,103.82953 77.230882,188 172.500002,188 95.26912,0 172.5,-84.17047 172.5,-188 0,-92.79534 -61.69179,-169.88114 -142.8125,-185.21875 -1.81264,-0.94984 -3.24458,-2.05048 -4.15625,-3.375 -18.53424,-26.92742 -37.18233,-34.21575 -52.15625,-34.34375 z"
       id="path4092"
       inkscape:connector-curvature="0" />
    <g
       id="g4151"
       transform="translate(401.56054,-139.85534)">
      <path
         sodipodi:nodetypes="ccccc"
         inkscape:connector-curvature="0"
         id="path3844"
         d="m -277.91142,590.93095 60.8048,30.21588 67.1464,-26.11249 c 1.18932,38.99234 -21.25318,61.68947 -71.62283,51.10588 -64.00785,18.35892 -57.65821,-53.16737 -56.32837,-55.20927 z"
         style="opacity:0.161435;fill:#000000;stroke:none" />
      <path
         style="fill:#000000;fill-opacity:1;fill-rule:nonzero;stroke:none"
         d="m -196.62702,602.26087 c 0,22.726 -18.42305,41.14905 -41.14906,41.14905 -22.726,0 -41.14905,-18.42305 -41.14905,-41.14905 0,-22.72599 18.42305,-41.14906 41.14905,-41.14906 22.72601,0 41.14906,18.42307 41.14906,41.14906 z"
         id="path3803"
         inkscape:connector-curvature="0" />
      <path
         style="fill:#ffffff;fill-opacity:1;fill-rule:nonzero;stroke:none"
         d="m -202.95764,602.26087 c 0,19.22969 -15.58874,34.81843 -34.81844,34.81843 -19.22969,0 -34.81843,-15.58874 -34.81843,-34.81843 0,-19.22969 15.58874,-34.81844 34.81843,-34.81844 19.2297,0 34.81844,15.58875 34.81844,34.81844 z"
         id="path3805"
         inkscape:connector-curvature="0" />
      <path
         style="fill:#000000;fill-opacity:1;fill-rule:nonzero;stroke:none"
         d="m -238.83118,597.5129 c 0,7.86669 -6.37722,14.2439 -14.2439,14.2439 -7.86669,0 -14.24391,-6.37721 -14.24391,-14.2439 0,-7.86669 6.37722,-14.24391 14.24391,-14.24391 7.86668,0 14.2439,6.37722 14.2439,14.24391 z"
         id="path3807"
         inkscape:connector-curvature="0" />
      <path
         style="fill:#ffffff;fill-opacity:1;fill-rule:nonzero;stroke:none"
         d="m -256.53389,596.76682 c 0,2.03952 -1.65335,3.69287 -3.69287,3.69287 -2.03951,0 -3.69286,-1.65335 -3.69286,-3.69287 0,-2.0395 1.65335,-3.69286 3.69286,-3.69286 2.03952,0 3.69287,1.65336 3.69287,3.69286 z"
         id="path3809"
         inkscape:connector-curvature="0" />
      <path
         inkscape:connector-curvature="0"
         id="path3773"
         d="m -149.14734,602.26087 c 0,22.726 -18.42305,41.14905 -41.14906,41.14905 -22.726,0 -41.14905,-18.42305 -41.14905,-41.14905 0,-22.72599 18.42305,-41.14906 41.14905,-41.14906 22.72601,0 41.14906,18.42307 41.14906,41.14906 z"
         style="fill:#000000;fill-opacity:1;fill-rule:nonzero;stroke:none" />
      <path
         inkscape:connector-curvature="0"
         id="path3775"
         d="m -155.47796,602.26087 c 0,19.22969 -15.58874,34.81843 -34.81844,34.81843 -19.22969,0 -34.81843,-15.58874 -34.81843,-34.81843 0,-19.22969 15.58874,-34.81844 34.81843,-34.81844 19.2297,0 34.81844,15.58875 34.81844,34.81844 z"
         style="fill:#ffffff;fill-opacity:1;fill-rule:nonzero;stroke:none" />
      <path
         inkscape:connector-curvature="0"
         id="path3779"
         d="m -191.3515,597.5129 c 0,7.86669 -6.37722,14.2439 -14.2439,14.2439 -7.86669,0 -14.24391,-6.37721 -14.24391,-14.2439 0,-7.86669 6.37722,-14.24391 14.24391,-14.24391 7.86668,0 14.2439,6.37722 14.2439,14.24391 z"
         style="fill:#000000;fill-opacity:1;fill-rule:nonzero;stroke:none" />
      <path
         inkscape:connector-curvature="0"
         id="path3782"
         d="m -209.05421,596.76682 c 0,2.03952 -1.65335,3.69287 -3.69287,3.69287 -2.03951,0 -3.69286,-1.65335 -3.69286,-3.69287 0,-2.0395 1.65335,-3.69286 3.69286,-3.69286 2.03952,0 3.69287,1.65336 3.69287,3.69286 z"
         style="fill:#ffffff;fill-opacity:1;fill-rule:nonzero;stroke:none" />
      <path
         sodipodi:nodetypes="ccsc"
         inkscape:connector-curvature="0"
         id="path3862"
         d="m -153.74909,632.37994 c 15.80393,-26.74243 9.49326,-41.61906 1.03099,-55.39485 0,0 15.06665,12.6243 15.12102,28.81651 0.0489,14.52928 -16.15201,26.57834 -16.15201,26.57834 z"
         style="opacity:0.43946186;fill:#ffffff;stroke:none" />
    </g>
    <path
       style="opacity:0.08968608;fill:#000000;stroke:none"
       d="m 270.21679,445.13184 c 0.0238,0.22638 0.125,0.96875 0.125,0.96875 177.53298,125.9211 7.59155,425.66696 -157.6875,308.96875 31.62913,39.77501 78.32098,64.9375 130.40625,64.9375 95.26912,0 172.5,-84.17047 172.5,-188 0,-92.79534 -61.69179,-169.88114 -142.8125,-185.21875 -0.96034,-0.50323 -1.80538,-1.0575 -2.53125,-1.65625 z"
       id="path4206"
       inkscape:connector-curvature="0"
       sodipodi:nodetypes="cccsscc" />
    <g
       id="g4306"
       inkscape:transform-center-x="-7.0587114"
       inkscape:transform-center-y="102.91793"
       transform="matrix(0.99983208,-0.01832541,0.01832541,0.99983208,-69.549362,30.768384)">
      <path
         style="fill:none;stroke:#000000;stroke-width:12;stroke-linecap:square;stroke-linejoin:round;stroke-miterlimit:4;stroke-opacity:1;stroke-dasharray:none"
         d="m 242.78662,701.99368 c -5.57106,55.61531 -0.28994,112.64862 17.23366,171.28162 0,0 43.35115,9.40442 65.5561,9.9972 26.69519,0.71264 79.46394,-7.79354 79.46394,-7.79354 -1.90429,-76.99726 8.69258,-121.846 22.46031,-172.67869 -12.7574,-54.53842 -58.06722,-42.13434 -92.36899,-40.40809 -34.67748,1.74516 -76.08043,-12.97969 -92.34502,39.6015 z"
         id="path4169"
         inkscape:connector-curvature="0"
         sodipodi:nodetypes="ccaccsc" />
      <path
         sodipodi:nodetypes="ccaccsc"
         inkscape:connector-curvature="0"
         id="path4163"
         d="m 242.78662,701.99368 c -5.57106,55.61531 -0.28994,112.64862 17.23366,171.28162 0,0 43.35115,9.40442 65.5561,9.9972 26.69519,0.71264 79.46394,-7.79354 79.46394,-7.79354 -1.90429,-76.99726 8.69258,-121.846 22.46031,-172.67869 0,0 8.02352,-57.87235 -92.80206,-58.44797 -96.30401,-0.54982 -91.91195,57.64138 -91.91195,57.64138 z"
         style="fill:#ff4690;fill-opacity:1;fill-rule:nonzero;stroke:none"
         inkscape:transform-center-x="-7"
         inkscape:transform-center-y="99" />
      <path
         inkscape:connector-curvature="0"
         id="path4171"
         d="m 271.32427,844.73328 c -3.60597,0.25173 -7.1651,9.81458 -8.1847,22.37823 -0.0485,0.59706 -0.11659,1.18946 -0.15206,1.77915 1.71286,0.36593 6.25604,1.33893 13.95898,2.80615 0.0197,-0.22104 0.0543,-0.43225 0.0724,-0.65521 1.08758,-13.40122 -1.138,-25.14963 -4.97697,-26.2349 -0.23993,-0.0679 -0.47732,-0.0902 -0.71771,-0.0734 z"
         style="fill:#cccccc;fill-opacity:1;fill-rule:nonzero;stroke:#000000;stroke-width:4;stroke-miterlimit:4;stroke-opacity:1;stroke-dasharray:none" />
      <path
         inkscape:connector-curvature="0"
         id="path4173"
         d="m 296.01898,849.26526 c -6.60407,0.0241 -12.48098,10.17861 -13.29211,23.23823 -0.005,0.0947 10e-4,0.18669 -0.004,0.28121 7.66883,1.39842 16.31382,2.89089 24.66082,4.00015 0.0639,-0.62788 0.14528,-1.26086 0.18519,-1.90365 0.83729,-13.4809 -4.06417,-24.94833 -10.9247,-25.60644 -0.21439,-0.0206 -0.4119,-0.0105 -0.62493,-0.009 z"
         style="fill:#cccccc;fill-opacity:1;fill-rule:nonzero;stroke:#000000;stroke-width:4;stroke-miterlimit:4;stroke-opacity:1;stroke-dasharray:none" />
      <path
         id="path4215"
         d="m 406.5,661.73718 c 19.34196,87.71209 -29.86569,147.2641 -94.0625,220.5 1.93727,0.21761 3.80692,0.40539 5.625,0.5625 1.05047,0.09 2.12661,0.18412 3.125,0.25 1.53727,0.10144 2.98719,0.1817 4.375,0.21875 3.3369,0.0891 7.096,0.039 11.09375,-0.125 3.99775,-0.16405 8.24313,-0.43322 12.59375,-0.78125 26.1037,-2.08821 55.78125,-6.875 55.78125,-6.875 -0.11902,-4.81233 -0.19508,-9.49207 -0.21875,-14.0625 -0.0118,-2.28521 -0.0111,-4.55302 0,-6.78125 0.0221,-4.41322 0.10982,-8.70295 0.21875,-12.90625 10e-4,-0.041 -10e-4,-0.084 0,-0.125 2.7e-4,-0.0105 -2.7e-4,-0.0208 0,-0.0312 0.0555,-2.12131 0.11076,-4.20993 0.1875,-6.28125 0.15339,-4.1425 0.35866,-8.16853 0.59375,-12.125 0.35263,-5.93471 0.78885,-11.68145 1.3125,-17.25 0.32995,-3.50875 0.70087,-6.92879 1.09375,-10.3125 0.0228,-0.19653 0.0395,-0.39761 0.0625,-0.59375 10e-4,-0.0104 -10e-4,-0.0209 0,-0.0312 0.20857,-1.77621 0.43115,-3.53605 0.65625,-5.28125 10e-4,-0.0103 -10e-4,-0.0209 0,-0.0312 0.0298,-0.23118 0.0636,-0.45684 0.0937,-0.6875 0.6546,-5.01172 1.37426,-9.92459 2.15625,-14.71875 0.5481,-3.36022 1.11364,-6.66135 1.71875,-9.9375 0.30161,-1.63325 0.62258,-3.2279 0.9375,-4.84375 1.25941,-6.46297 2.61283,-12.81609 4.0625,-19.09375 1.30436,-5.64843 2.6946,-11.23075 4.125,-16.84375 0.15897,-0.62385 0.30841,-1.25085 0.46875,-1.875 0.002,-0.01 -0.002,-0.0215 0,-0.0312 0.1655,-0.64412 0.33308,-1.29289 0.5,-1.9375 1.44844,-5.59333 2.95891,-11.21629 4.5,-16.90625 0,0 3.30111,-23.83204 -21,-41.0625 z"
         style="opacity:0.08968608;fill:#000000;fill-opacity:1;fill-rule:nonzero;stroke:none"
         inkscape:connector-curvature="0" />
    </g>
    <path
       style="opacity:0.33632286;fill:#ffffff;fill-opacity:1;fill-rule:nonzero;stroke:none"
       d="m 129.56054,500.00684 c 9.76565,11.4496 26.57926,20.71452 51.32322,10.38388 0,0 -20.47801,11.27802 -33.77297,6.20191 -12.7761,-4.87802 -17.55025,-16.58579 -17.55025,-16.58579 z"
       id="path4227"
       inkscape:connector-curvature="0"
       sodipodi:nodetypes="ccsc" />
    <path
       style="opacity:0.33632286;fill:#ffffff;fill-opacity:1;fill-rule:nonzero;stroke:none"
       d="m 110.93554,511.19434 c -25.183892,32.6757 -40.375002,74.79968 -40.375002,120.8125 0,48.81054 17.07657,93.26829 45.062502,126.6875 -51.507182,-80.00939 -38.116802,-179.15213 -4.6875,-247.5 z"
       id="path4229"
       inkscape:connector-curvature="0" />
    <path
       style="font-size:medium;font-style:normal;font-variant:normal;font-weight:normal;font-stretch:normal;text-indent:0;text-align:start;text-decoration:none;line-height:normal;letter-spacing:normal;word-spacing:normal;text-transform:none;direction:ltr;block-progression:tb;writing-mode:lr-tb;text-anchor:start;baseline-shift:baseline;color:#000000;fill:#000000;fill-opacity:1;fill-rule:nonzero;stroke:none;stroke-width:15;marker:none;visibility:visible;display:inline;overflow:visible;enable-background:accumulate;font-family:Sans;-inkscape-font-specification:Sans"
       d="m 213.61689,550.23907 c -23.68491,17.73509 -60.05118,29.3882 -76.9001,31.33027 0,0 -13.27191,11.48905 -9.27266,16.28921 8.22075,9.86707 58.79705,-13.89704 79.61641,-33.85171 3.66966,-3.51725 6.55635,-13.76777 6.55635,-13.76777 z"
       id="path4261"
       inkscape:connector-curvature="0"
       sodipodi:nodetypes="ccsac" />
    <path
       style="fill:#ffffff;fill-opacity:1;fill-rule:nonzero;stroke:none"
       d="m 182.49804,571.25684 c -5.83696,0.43877 -6.56083,8.71786 -6.40625,14.1875 4.50197,-2.43326 8.94214,-5.047 13.125,-7.75 -1.30194,-3.40274 -3.40829,-6.68635 -6.71875,-6.4375 z"
       id="path4267"
       inkscape:connector-curvature="0" />
    <path
       style="opacity:0.21524664;fill:#ffffff;fill-opacity:1;fill-rule:nonzero;stroke:none"
       d="m 127.93554,589.88184 c -23.32657,33.53776 60.5486,-1.03578 77.5,-22.25 0,0 -17.21194,27.29692 -72.875,41.25 -24.53182,6.1494 -4.625,-19 -4.625,-19 z"
       id="path4272"
       inkscape:connector-curvature="0"
       sodipodi:nodetypes="ccsc" />
    <path
       style="opacity:0.13004485;fill:#000000;fill-opacity:1;fill-rule:nonzero;stroke:none"
       d="m 213.15694,537.42532 c 8.32628,15.86246 -49.63233,34.51973 -60.7983,36.40232 0,0 32.5358,-12.38255 46.61271,-22.31043 5.44677,-3.84138 14.18559,-14.09189 14.18559,-14.09189 z"
       id="path4274"
       inkscape:connector-curvature="0"
       sodipodi:nodetypes="ccac" />
    <g
       transform="matrix(0.99264702,-0.12104503,0.12104503,0.99264702,-1043.5494,240.94017)"
       inkscape:transform-center-y="42.625961"
       inkscape:transform-center-x="22.324392"
       id="g4488">
      <path
         inkscape:transform-center-y="31.074941"
         inkscape:transform-center-x="23.784441"
         sodipodi:nodetypes="sssscss"
         inkscape:connector-curvature="0"
         id="path4490"
         d="m 1262.6441,478.32031 c -11.313,11.08724 -1.5271,19.57166 -17.348,38.17311 -15.821,18.60145 -43.6017,31.15321 -38.8196,40.88148 3.832,7.79558 41.9292,6.68425 65.913,-4.85773 23.984,-11.54196 33.8546,-33.51458 33.8546,-33.51458 0,0 10.6742,-26.37384 -0.7015,-39.54335 -13.6147,-15.76144 -29.6251,-14.14754 -42.8985,-1.13893 z"
         style="fill:none;stroke:#000000;stroke-width:9;stroke-miterlimit:4;stroke-opacity:1;stroke-dasharray:none" />
      <path
         style="fill:#ff4690;fill-opacity:1;stroke:none"
         d="m 1263.3941,471.57031 c -11.313,11.08728 -2.2771,26.32166 -18.098,44.92311 -15.821,18.60145 -43.6017,31.15321 -38.8196,40.88148 3.832,7.79558 41.9292,6.68425 65.913,-4.85773 23.984,-11.54196 33.8546,-33.51458 33.8546,-33.51458 17.611,-36.58758 -0.5731,-54.1217 -17.7588,-56.59139 -10.362,0.25208 -18.8994,3.09081 -25.0912,9.15911 z"
         id="path4492"
         inkscape:connector-curvature="0"
         sodipodi:nodetypes="ssssccs"
         inkscape:transform-center-x="23.784441"
         inkscape:transform-center-y="31.074941" />
      <path
         inkscape:connector-curvature="0"
         style="opacity:0.14798207;fill:#000000;fill-opacity:1;fill-rule:nonzero;stroke:none"
         d="m 1313.2812,488.92468 c -25.1515,59.68591 -66.1429,64.08435 -106.3437,69.125 5.6862,7.03469 42.1803,5.66105 65.4375,-5.53125 23.984,-11.54196 33.875,-33.53125 33.875,-33.53125 5.8011,-12.05196 7.683,-22.00274 7.0312,-30.0625 z"
         id="path4494" />
      <path
         inkscape:connector-curvature="0"
         style="opacity:0.14798207;fill:#ffffff;fill-opacity:1;fill-rule:nonzero;stroke:none"
         d="m 1259.8438,123.90625 c -5.7676,10.55034 -0.8665,24.11565 -14.5626,40.21875 -7.6343,8.976 -17.9861,16.54132 -26.1874,23.0625 35.8178,-14.08984 41.7128,-27.9914 40.75,-63.28125 z"
         transform="translate(0,352.36218)"
         id="path4496" />
    </g>
    <rect
       inkscape:export-ydpi="90"
       inkscape:export-xdpi="90"
       inkscape:export-filename="C:\Users\robert\Desktop\pink_monster\atlas-map.png"
       style="opacity:0.71238942000000005;color:#000000;fill:none;stroke:none;stroke-width:9;marker:none;visibility:visible;display:inline;overflow:visible;enable-background:accumulate"
       id="rect4450"
       width="1024"
       height="1024"
       x="604.71069"
       y="344.70532" />
    <g
       id="g4388"
       transform="translate(-1939.1169,18.054692)"
       inkscape:export-filename="C:\Users\robert\Desktop\pink_monster\Peices\blink4.png"
       inkscape:export-xdpi="90"
       inkscape:export-ydpi="90">
      <path
         inkscape:connector-curvature="0"
         id="path3311"
         d="m 2882.8263,1210.7012 c 0,22.726 -18.4231,41.149 -41.1491,41.149 -22.726,0 -41.149,-18.423 -41.149,-41.149 0,-22.726 18.423,-41.1491 41.149,-41.1491 22.726,0 41.1491,18.4231 41.1491,41.1491 z"
         style="fill:#000000;fill-opacity:1;fill-rule:nonzero;stroke:none" />
      <path
         inkscape:connector-curvature="0"
         id="path3313"
         d="m 2876.4957,1210.7012 c 0,19.2297 -15.5888,34.8184 -34.8185,34.8184 -19.2297,0 -34.8184,-15.5887 -34.8184,-34.8184 0,-19.2297 15.5887,-34.8185 34.8184,-34.8185 19.2297,0 34.8185,15.5888 34.8185,34.8185 z"
         style="fill:#ffffff;fill-opacity:1;fill-rule:nonzero;stroke:none" />
      <path
         inkscape:connector-curvature="0"
         id="path3315"
         d="m 2840.6221,1205.9532 c 0,7.8667 -6.3772,14.2439 -14.2439,14.2439 -7.8667,0 -14.2439,-6.3772 -14.2439,-14.2439 0,-7.8667 6.3772,-14.2439 14.2439,-14.2439 7.8667,0 14.2439,6.3772 14.2439,14.2439 z"
         style="fill:#000000;fill-opacity:1;fill-rule:nonzero;stroke:none" />
      <path
         inkscape:connector-curvature="0"
         id="path3317"
         d="m 2822.9194,1205.2071 c 0,2.0395 -1.6533,3.6929 -3.6929,3.6929 -2.0395,0 -3.6928,-1.6534 -3.6928,-3.6929 0,-2.0395 1.6533,-3.6928 3.6928,-3.6928 2.0396,0 3.6929,1.6533 3.6929,3.6928 z"
         style="fill:#ffffff;fill-opacity:1;fill-rule:nonzero;stroke:none" />
      <path
         style="fill:#ff4690;fill-opacity:1;fill-rule:nonzero;stroke:none"
         d="m 2876.4957,1210.7012 c 0,19.2297 -15.5888,34.8184 -34.8185,34.8184 -19.2297,0 -34.8184,-15.5887 -34.8184,-34.8184 0,-19.2297 15.5887,-34.8185 34.8184,-34.8185 19.2297,0 34.8185,15.5888 34.8185,34.8185 z"
         id="path4308"
         inkscape:connector-curvature="0" />
      <path
         style="fill:#000000;fill-opacity:1;fill-rule:nonzero;stroke:none"
         d="m 2930.306,1210.7012 c 0,22.726 -18.4231,41.149 -41.1491,41.149 -22.726,0 -41.149,-18.423 -41.149,-41.149 0,-22.726 18.423,-41.1491 41.149,-41.1491 22.726,0 41.1491,18.4231 41.1491,41.1491 z"
         id="path3319"
         inkscape:connector-curvature="0" />
      <path
         style="fill:#ffffff;fill-opacity:1;fill-rule:nonzero;stroke:none"
         d="m 2923.9753,1210.7012 c 0,19.2297 -15.5887,34.8184 -34.8184,34.8184 -19.2297,0 -34.8184,-15.5887 -34.8184,-34.8184 0,-19.2297 15.5887,-34.8185 34.8184,-34.8185 19.2297,0 34.8184,15.5888 34.8184,34.8185 z"
         id="path3321"
         inkscape:connector-curvature="0" />
      <path
         style="fill:#000000;fill-opacity:1;fill-rule:nonzero;stroke:none"
         d="m 2888.1018,1205.9532 c 0,7.8667 -6.3772,14.2439 -14.2439,14.2439 -7.8667,0 -14.2439,-6.3772 -14.2439,-14.2439 0,-7.8667 6.3772,-14.2439 14.2439,-14.2439 7.8667,0 14.2439,6.3772 14.2439,14.2439 z"
         id="path3323"
         inkscape:connector-curvature="0" />
      <path
         style="fill:#ffffff;fill-opacity:1;fill-rule:nonzero;stroke:none"
         d="m 2870.3991,1205.2071 c 0,2.0395 -1.6534,3.6929 -3.6929,3.6929 -2.0395,0 -3.6928,-1.6534 -3.6928,-3.6929 0,-2.0395 1.6533,-3.6928 3.6928,-3.6928 2.0395,0 3.6929,1.6533 3.6929,3.6928 z"
         id="path3325"
         inkscape:connector-curvature="0" />
      <path
         inkscape:connector-curvature="0"
         id="path4310"
         d="m 2923.9753,1210.7012 c 0,19.2297 -15.5887,34.8184 -34.8184,34.8184 -19.2297,0 -34.8184,-15.5887 -34.8184,-34.8184 0,-19.2297 15.5887,-34.8185 34.8184,-34.8185 19.2297,0 34.8184,15.5888 34.8184,34.8185 z"
         style="fill:#ff4690;fill-opacity:1;fill-rule:nonzero;stroke:none" />
    </g>
    <g
       transform="matrix(0.99264702,-0.12104503,0.12104503,0.99264702,-228.15621,674.4469)"
       inkscape:transform-center-y="42.625961"
       inkscape:transform-center-x="22.324392"
       id="g3067">
      <path
         inkscape:transform-center-y="31.074941"
         inkscape:transform-center-x="23.784441"
         sodipodi:nodetypes="sssscss"
         inkscape:connector-curvature="0"
         id="path3069"
         d="m 1262.6441,478.32031 c -11.313,11.08724 -1.5271,19.57166 -17.348,38.17311 -15.821,18.60145 -43.6017,31.15321 -38.8196,40.88148 3.832,7.79558 41.9292,6.68425 65.913,-4.85773 23.984,-11.54196 33.8546,-33.51458 33.8546,-33.51458 0,0 10.6742,-26.37384 -0.7015,-39.54335 -13.6147,-15.76144 -29.6251,-14.14754 -42.8985,-1.13893 z"
         style="fill:none;stroke:#000000;stroke-width:9;stroke-miterlimit:4;stroke-opacity:1;stroke-dasharray:none" />
      <path
         style="fill:#ff4690;fill-opacity:1;stroke:none"
         d="m 1263.3941,471.57031 c -11.313,11.08728 -2.2771,26.32166 -18.098,44.92311 -15.821,18.60145 -43.6017,31.15321 -38.8196,40.88148 3.832,7.79558 41.9292,6.68425 65.913,-4.85773 23.984,-11.54196 33.8546,-33.51458 33.8546,-33.51458 17.611,-36.58758 -0.5731,-54.1217 -17.7588,-56.59139 -10.362,0.25208 -18.8994,3.09081 -25.0912,9.15911 z"
         id="path3071"
         inkscape:connector-curvature="0"
         sodipodi:nodetypes="ssssccs"
         inkscape:transform-center-x="23.784441"
         inkscape:transform-center-y="31.074941" />
      <path
         inkscape:connector-curvature="0"
         style="opacity:0.14798207;fill:#000000;fill-opacity:1;fill-rule:nonzero;stroke:none"
         d="m 1313.2812,488.92468 c -25.1515,59.68591 -66.1429,64.08435 -106.3437,69.125 5.6862,7.03469 42.1803,5.66105 65.4375,-5.53125 23.984,-11.54196 33.875,-33.53125 33.875,-33.53125 5.8011,-12.05196 7.683,-22.00274 7.0312,-30.0625 z"
         id="path3073" />
      <path
         inkscape:connector-curvature="0"
         style="opacity:0.14798207;fill:#ffffff;fill-opacity:1;fill-rule:nonzero;stroke:none"
         d="m 1259.8438,123.90625 c -5.7676,10.55034 -0.8665,24.11565 -14.5626,40.21875 -7.6343,8.976 -17.9861,16.54132 -26.1874,23.0625 35.8178,-14.08984 41.7128,-27.9914 40.75,-63.28125 z"
         transform="translate(0,352.36218)"
         id="path3075" />
    </g>
    <g
       inkscape:transform-center-x="0.46750671"
       inkscape:transform-center-y="92.967267"
       transform="matrix(0.99995757,0.00921133,-0.00921133,0.99995757,1080.1777,-143.84275)"
       id="g3077">
      <path
         style="fill:none;stroke:#000000;stroke-width:12;stroke-linecap:square;stroke-linejoin:round;stroke-miterlimit:4;stroke-opacity:1;stroke-dasharray:none"
         d="m 242.78662,701.99368 c -5.57106,55.61531 -0.28994,112.64862 17.23366,171.28162 0,0 43.35115,9.40442 65.5561,9.9972 26.69519,0.71264 79.46394,-7.79354 79.46394,-7.79354 -1.90429,-76.99726 8.69258,-121.846 22.46031,-172.67869 -12.7574,-54.53842 -58.06722,-42.13434 -92.36899,-40.40809 -34.67748,1.74516 -76.08043,-12.97969 -92.34502,39.6015 z"
         id="path3079"
         inkscape:connector-curvature="0"
         sodipodi:nodetypes="ccaccsc" />
      <path
         sodipodi:nodetypes="ccaccsc"
         inkscape:connector-curvature="0"
         id="path3081"
         d="m 242.78662,701.99368 c -5.57106,55.61531 -0.28994,112.64862 17.23366,171.28162 0,0 43.35115,9.40442 65.5561,9.9972 26.69519,0.71264 79.46394,-7.79354 79.46394,-7.79354 -1.90429,-76.99726 8.69258,-121.846 22.46031,-172.67869 0,0 8.02352,-57.87235 -92.80206,-58.44797 -96.30401,-0.54982 -91.91195,57.64138 -91.91195,57.64138 z"
         style="fill:#ff4690;fill-opacity:1;fill-rule:nonzero;stroke:none" />
      <path
         inkscape:connector-curvature="0"
         id="path3083"
         d="m 271.32427,844.73328 c -3.60597,0.25173 -7.1651,9.81458 -8.1847,22.37823 -0.0485,0.59706 -0.11659,1.18946 -0.15206,1.77915 1.71286,0.36593 6.25604,1.33893 13.95898,2.80615 0.0197,-0.22104 0.0543,-0.43225 0.0724,-0.65521 1.08758,-13.40122 -1.138,-25.14963 -4.97697,-26.2349 -0.23993,-0.0679 -0.47732,-0.0902 -0.71771,-0.0734 z"
         style="fill:#cccccc;fill-opacity:1;fill-rule:nonzero;stroke:#000000;stroke-width:4;stroke-miterlimit:4;stroke-opacity:1;stroke-dasharray:none" />
      <path
         inkscape:connector-curvature="0"
         id="path3085"
         d="m 296.01898,849.26526 c -6.60407,0.0241 -12.48098,10.17861 -13.29211,23.23823 -0.005,0.0947 10e-4,0.18669 -0.004,0.28121 7.66883,1.39842 16.31382,2.89089 24.66082,4.00015 0.0639,-0.62788 0.14528,-1.26086 0.18519,-1.90365 0.83729,-13.4809 -4.06417,-24.94833 -10.9247,-25.60644 -0.21439,-0.0206 -0.4119,-0.0105 -0.62493,-0.009 z"
         style="fill:#cccccc;fill-opacity:1;fill-rule:nonzero;stroke:#000000;stroke-width:4;stroke-miterlimit:4;stroke-opacity:1;stroke-dasharray:none" />
      <path
         id="path3087"
         d="m 406.5,661.73718 c 19.34196,87.71209 -29.86569,147.2641 -94.0625,220.5 1.93727,0.21761 3.80692,0.40539 5.625,0.5625 1.05047,0.09 2.12661,0.18412 3.125,0.25 1.53727,0.10144 2.98719,0.1817 4.375,0.21875 3.3369,0.0891 7.096,0.039 11.09375,-0.125 3.99775,-0.16405 8.24313,-0.43322 12.59375,-0.78125 26.1037,-2.08821 55.78125,-6.875 55.78125,-6.875 -0.11902,-4.81233 -0.19508,-9.49207 -0.21875,-14.0625 -0.0118,-2.28521 -0.0111,-4.55302 0,-6.78125 0.0221,-4.41322 0.10982,-8.70295 0.21875,-12.90625 10e-4,-0.041 -10e-4,-0.084 0,-0.125 2.7e-4,-0.0105 -2.7e-4,-0.0208 0,-0.0312 0.0555,-2.12131 0.11076,-4.20993 0.1875,-6.28125 0.15339,-4.1425 0.35866,-8.16853 0.59375,-12.125 0.35263,-5.93471 0.78885,-11.68145 1.3125,-17.25 0.32995,-3.50875 0.70087,-6.92879 1.09375,-10.3125 0.0228,-0.19653 0.0395,-0.39761 0.0625,-0.59375 10e-4,-0.0104 -10e-4,-0.0209 0,-0.0312 0.20857,-1.77621 0.43115,-3.53605 0.65625,-5.28125 10e-4,-0.0103 -10e-4,-0.0209 0,-0.0312 0.0298,-0.23118 0.0636,-0.45684 0.0937,-0.6875 0.6546,-5.01172 1.37426,-9.92459 2.15625,-14.71875 0.5481,-3.36022 1.11364,-6.66135 1.71875,-9.9375 0.30161,-1.63325 0.62258,-3.2279 0.9375,-4.84375 1.25941,-6.46297 2.61283,-12.81609 4.0625,-19.09375 1.30436,-5.64843 2.6946,-11.23075 4.125,-16.84375 0.15897,-0.62385 0.30841,-1.25085 0.46875,-1.875 0.002,-0.01 -0.002,-0.0215 0,-0.0312 0.1655,-0.64412 0.33308,-1.29289 0.5,-1.9375 1.44844,-5.59333 2.95891,-11.21629 4.5,-16.90625 0,0 3.30111,-23.83204 -21,-41.0625 z"
         style="opacity:0.08968608;fill:#000000;fill-opacity:1;fill-rule:nonzero;stroke:none"
         inkscape:connector-curvature="0" />
    </g>
    <g
       transform="matrix(0.99983208,-0.01832541,0.01832541,0.99983208,799.29035,-126.32705)"
       inkscape:transform-center-y="102.91793"
       inkscape:transform-center-x="-7.0587114"
       id="g3117"
       inkscape:export-filename="C:\Users\robert\Desktop\pink_monster\Peices\leg.png"
       inkscape:export-xdpi="90"
       inkscape:export-ydpi="90">
      <path
         sodipodi:nodetypes="ccaccsc"
         inkscape:connector-curvature="0"
         id="path3119"
         d="m 242.78662,701.99368 c -5.57106,55.61531 -0.28994,112.64862 17.23366,171.28162 0,0 43.35115,9.40442 65.5561,9.9972 26.69519,0.71264 79.46394,-7.79354 79.46394,-7.79354 -1.90429,-76.99726 8.69258,-121.846 22.46031,-172.67869 -12.7574,-54.53842 -58.06722,-42.13434 -92.36899,-40.40809 -34.67748,1.74516 -76.08043,-12.97969 -92.34502,39.6015 z"
         style="fill:none;stroke:#000000;stroke-width:12;stroke-linecap:square;stroke-linejoin:round;stroke-miterlimit:4;stroke-opacity:1;stroke-dasharray:none" />
      <path
         inkscape:transform-center-y="99"
         inkscape:transform-center-x="-7"
         style="fill:#ff4690;fill-opacity:1;fill-rule:nonzero;stroke:none"
         d="m 242.78662,701.99368 c -5.57106,55.61531 -0.28994,112.64862 17.23366,171.28162 0,0 43.35115,9.40442 65.5561,9.9972 26.69519,0.71264 79.46394,-7.79354 79.46394,-7.79354 -1.90429,-76.99726 8.69258,-121.846 22.46031,-172.67869 0,0 8.02352,-57.87235 -92.80206,-58.44797 -96.30401,-0.54982 -91.91195,57.64138 -91.91195,57.64138 z"
         id="path3121"
         inkscape:connector-curvature="0"
         sodipodi:nodetypes="ccaccsc" />
      <path
         style="fill:#cccccc;fill-opacity:1;fill-rule:nonzero;stroke:#000000;stroke-width:4;stroke-miterlimit:4;stroke-opacity:1;stroke-dasharray:none"
         d="m 271.32427,844.73328 c -3.60597,0.25173 -7.1651,9.81458 -8.1847,22.37823 -0.0485,0.59706 -0.11659,1.18946 -0.15206,1.77915 1.71286,0.36593 6.25604,1.33893 13.95898,2.80615 0.0197,-0.22104 0.0543,-0.43225 0.0724,-0.65521 1.08758,-13.40122 -1.138,-25.14963 -4.97697,-26.2349 -0.23993,-0.0679 -0.47732,-0.0902 -0.71771,-0.0734 z"
         id="path3123"
         inkscape:connector-curvature="0" />
      <path
         style="fill:#cccccc;fill-opacity:1;fill-rule:nonzero;stroke:#000000;stroke-width:4;stroke-miterlimit:4;stroke-opacity:1;stroke-dasharray:none"
         d="m 296.01898,849.26526 c -6.60407,0.0241 -12.48098,10.17861 -13.29211,23.23823 -0.005,0.0947 10e-4,0.18669 -0.004,0.28121 7.66883,1.39842 16.31382,2.89089 24.66082,4.00015 0.0639,-0.62788 0.14528,-1.26086 0.18519,-1.90365 0.83729,-13.4809 -4.06417,-24.94833 -10.9247,-25.60644 -0.21439,-0.0206 -0.4119,-0.0105 -0.62493,-0.009 z"
         id="path3125"
         inkscape:connector-curvature="0" />
      <path
         inkscape:connector-curvature="0"
         style="opacity:0.08968608;fill:#000000;fill-opacity:1;fill-rule:nonzero;stroke:none"
         d="m 406.5,661.73718 c 19.34196,87.71209 -29.86569,147.2641 -94.0625,220.5 1.93727,0.21761 3.80692,0.40539 5.625,0.5625 1.05047,0.09 2.12661,0.18412 3.125,0.25 1.53727,0.10144 2.98719,0.1817 4.375,0.21875 3.3369,0.0891 7.096,0.039 11.09375,-0.125 3.99775,-0.16405 8.24313,-0.43322 12.59375,-0.78125 26.1037,-2.08821 55.78125,-6.875 55.78125,-6.875 -0.11902,-4.81233 -0.19508,-9.49207 -0.21875,-14.0625 -0.0118,-2.28521 -0.0111,-4.55302 0,-6.78125 0.0221,-4.41322 0.10982,-8.70295 0.21875,-12.90625 10e-4,-0.041 -10e-4,-0.084 0,-0.125 2.7e-4,-0.0105 -2.7e-4,-0.0208 0,-0.0312 0.0555,-2.12131 0.11076,-4.20993 0.1875,-6.28125 0.15339,-4.1425 0.35866,-8.16853 0.59375,-12.125 0.35263,-5.93471 0.78885,-11.68145 1.3125,-17.25 0.32995,-3.50875 0.70087,-6.92879 1.09375,-10.3125 0.0228,-0.19653 0.0395,-0.39761 0.0625,-0.59375 10e-4,-0.0104 -10e-4,-0.0209 0,-0.0312 0.20857,-1.77621 0.43115,-3.53605 0.65625,-5.28125 10e-4,-0.0103 -10e-4,-0.0209 0,-0.0312 0.0298,-0.23118 0.0636,-0.45684 0.0937,-0.6875 0.6546,-5.01172 1.37426,-9.92459 2.15625,-14.71875 0.5481,-3.36022 1.11364,-6.66135 1.71875,-9.9375 0.30161,-1.63325 0.62258,-3.2279 0.9375,-4.84375 1.25941,-6.46297 2.61283,-12.81609 4.0625,-19.09375 1.30436,-5.64843 2.6946,-11.23075 4.125,-16.84375 0.15897,-0.62385 0.30841,-1.25085 0.46875,-1.875 0.002,-0.01 -0.002,-0.0215 0,-0.0312 0.1655,-0.64412 0.33308,-1.29289 0.5,-1.9375 1.44844,-5.59333 2.95891,-11.21629 4.5,-16.90625 0,0 3.30111,-23.83204 -21,-41.0625 z"
         id="path3127" />
    </g>
    <g
       id="g4418"
       inkscape:export-filename="C:\Users\robert\Desktop\pink_monster\Peices\head.png"
       inkscape:export-xdpi="90"
       inkscape:export-ydpi="90"
       transform="translate(588.39615,-1022.9201)">
      <path
         id="path3089"
         d="m 206.64368,1431.7224 c -16.97044,-0.1451 -29.24552,8.8933 -31.34375,8.9062 -6.31909,0.039 -27.04372,-15.0419 -52.3125,5.6563 -30.28193,24.8045 -11.15057,65.9986 -18.1875,82.9375 -27.37161,33.2746 -44.03125,77.2311 -44.03125,125.4375 0,103.8295 77.23088,188 172.5,188 95.26912,0 172.5,-84.1705 172.5,-188 0,-92.7954 -61.69179,-169.8812 -142.8125,-185.2188 -1.81264,-0.9498 -3.24458,-2.0505 -4.15625,-3.375 -18.53424,-26.9274 -37.18233,-34.2157 -52.15625,-34.3437 z"
         style="fill:none;stroke:#000000;stroke-width:14;stroke-miterlimit:4;stroke-opacity:1;stroke-dasharray:none"
         inkscape:connector-curvature="0" />
      <path
         style="fill:#ff4690;fill-opacity:1;fill-rule:nonzero;stroke:none"
         d="m 206.64368,1431.7224 c -16.97044,-0.1451 -29.24552,8.8933 -31.34375,8.9062 -6.31909,0.039 -27.04372,-15.0419 -52.3125,5.6563 -30.28193,24.8045 -11.15057,65.9986 -18.1875,82.9375 -27.37161,33.2746 -44.03125,77.2311 -44.03125,125.4375 0,103.8295 77.23088,188 172.5,188 95.26912,0 172.5,-84.1705 172.5,-188 0,-92.7954 -61.69179,-169.8812 -142.8125,-185.2188 -1.81264,-0.9498 -3.24458,-2.0505 -4.15625,-3.375 -18.53424,-26.9274 -37.18233,-34.2157 -52.15625,-34.3437 z"
         id="path3091"
         inkscape:connector-curvature="0" />
      <g
         id="g3093"
         transform="translate(391.76868,882.79769)">
        <path
           style="opacity:0.161435;fill:#000000;stroke:none"
           d="m 154,1091.5625 c -18.88949,0 -34.8189,12.7207 -39.65625,30.0625 l -0.5,-0.25 c -0.23878,0.3666 -0.6239,2.9817 -0.75,6.9062 -0.007,0.063 -0.0248,0.1243 -0.0312,0.1876 -0.14054,1.3831 -0.21875,2.7983 -0.21875,4.2187 0,2.8408 0.29541,5.6023 0.84375,8.2813 0.0107,0.052 0.0204,0.1042 0.0312,0.1562 2.57984,20.3912 14.11173,47.5865 56.46875,35.4375 37.99769,7.984 60.06911,-2.9594 68.125,-25.5625 2.74732,-5.517 4.3125,-11.7321 4.3125,-18.3125 0,-22.726 -18.43024,-41.125 -41.15625,-41.125 -8.84047,0 -17.01173,2.7867 -23.71875,7.5313 -6.71085,-4.7535 -14.90046,-7.5313 -23.75,-7.5313 z"
           transform="translate(-391.76868,-530.43551)"
           id="path3095"
           inkscape:connector-curvature="0" />
        <path
           sodipodi:nodetypes="ccsc"
           inkscape:connector-curvature="0"
           id="path3113"
           d="m -153.74909,632.37994 c 15.80393,-26.74243 9.49326,-41.61906 1.03099,-55.39485 0,0 15.06665,12.6243 15.12102,28.81651 0.0489,14.52928 -16.15201,26.57834 -16.15201,26.57834 z"
           style="opacity:0.43946186;fill:#ffffff;stroke:none" />
      </g>
      <path
         style="opacity:0.08968608;fill:#000000;stroke:none"
         d="m 260.42493,1467.7849 c 0.0238,0.2263 0.125,0.9687 0.125,0.9687 177.53298,125.9211 7.59155,425.667 -157.6875,308.9688 31.62913,39.775 78.32098,64.9375 130.40625,64.9375 95.26912,0 172.5,-84.1705 172.5,-188 0,-92.7954 -61.69179,-169.8812 -142.8125,-185.2188 -0.96034,-0.5032 -1.80538,-1.0575 -2.53125,-1.6562 z"
         id="path3115"
         inkscape:connector-curvature="0"
         sodipodi:nodetypes="cccsscc" />
      <path
         style="opacity:0.33632286;fill:#ffffff;fill-opacity:1;fill-rule:nonzero;stroke:none"
         d="m 119.76868,1522.6599 c 9.76565,11.4496 26.57926,20.7145 51.32322,10.3838 0,0 -20.47801,11.2781 -33.77297,6.202 -12.7761,-4.8781 -17.55025,-16.5858 -17.55025,-16.5858 z"
         id="path3129"
         inkscape:connector-curvature="0"
         sodipodi:nodetypes="ccsc" />
      <path
         style="opacity:0.33632286;fill:#ffffff;fill-opacity:1;fill-rule:nonzero;stroke:none"
         d="m 101.14368,1533.8474 c -25.18389,32.6757 -40.375,74.7996 -40.375,120.8125 0,48.8105 17.07657,93.2683 45.0625,126.6875 -51.50718,-80.0094 -38.1168,-179.1522 -4.6875,-247.5 z"
         id="path3131"
         inkscape:connector-curvature="0" />
    </g>
    <g
       id="g4412"
       transform="translate(772.00968,-692.92005)"
       inkscape:export-filename="C:\Users\robert\Desktop\pink_monster\Peices\mouth.png"
       inkscape:export-xdpi="90"
       inkscape:export-ydpi="90">
      <path
         style="font-size:medium;font-style:normal;font-variant:normal;font-weight:normal;font-stretch:normal;text-indent:0;text-align:start;text-decoration:none;line-height:normal;letter-spacing:normal;word-spacing:normal;text-transform:none;direction:ltr;block-progression:tb;writing-mode:lr-tb;text-anchor:start;baseline-shift:baseline;color:#000000;fill:#000000;fill-opacity:1;fill-rule:nonzero;stroke:none;stroke-width:15;marker:none;visibility:visible;display:inline;overflow:visible;enable-background:accumulate;font-family:Sans;-inkscape-font-specification:Sans"
         d="m 203.82503,1572.8921 c -23.68491,17.7351 -60.05118,29.3882 -76.9001,31.3303 0,0 -13.27191,11.489 -9.27266,16.2892 8.22075,9.867 58.79705,-13.8971 79.61641,-33.8517 3.66966,-3.5173 6.55635,-13.7678 6.55635,-13.7678 z"
         id="path3133"
         inkscape:connector-curvature="0"
         sodipodi:nodetypes="ccsac" />
      <path
         style="fill:#ffffff;fill-opacity:1;fill-rule:nonzero;stroke:none"
         d="m 172.70618,1593.9099 c -5.83696,0.4387 -6.56083,8.7178 -6.40625,14.1875 4.50197,-2.4333 8.94214,-5.047 13.125,-7.75 -1.30194,-3.4028 -3.40829,-6.6864 -6.71875,-6.4375 z"
         id="path3135"
         inkscape:connector-curvature="0" />
      <path
         style="opacity:0.21524664;fill:#ffffff;fill-opacity:1;fill-rule:nonzero;stroke:none"
         d="m 118.14368,1612.5349 c -23.32657,33.5377 60.5486,-1.0358 77.5,-22.25 0,0 -17.21194,27.2969 -72.875,41.25 -24.53182,6.1494 -4.625,-19 -4.625,-19 z"
         id="path3137"
         inkscape:connector-curvature="0"
         sodipodi:nodetypes="ccsc" />
      <path
         style="opacity:0.13004485;fill:#000000;fill-opacity:1;fill-rule:nonzero;stroke:none"
         d="m 203.36508,1560.0783 c 8.32628,15.8625 -49.63233,34.5198 -60.7983,36.4024 0,0 32.5358,-12.3826 46.61271,-22.3105 5.44677,-3.8413 14.18559,-14.0919 14.18559,-14.0919 z"
         id="path3139"
         inkscape:connector-curvature="0"
         sodipodi:nodetypes="ccac" />
    </g>
    <g
       id="g3141"
       inkscape:transform-center-x="22.324392"
       inkscape:transform-center-y="42.625961"
       transform="matrix(0.99264702,-0.12104503,0.12104503,0.99264702,-219.29541,516.33005)"
       inkscape:export-filename="C:\Users\robert\Desktop\pink_monster\Peices\arm.png"
       inkscape:export-xdpi="90"
       inkscape:export-ydpi="90">
      <path
         style="fill:none;stroke:#000000;stroke-width:9;stroke-miterlimit:4;stroke-opacity:1;stroke-dasharray:none"
         d="m 1262.6441,478.32031 c -11.313,11.08724 -1.5271,19.57166 -17.348,38.17311 -15.821,18.60145 -43.6017,31.15321 -38.8196,40.88148 3.832,7.79558 41.9292,6.68425 65.913,-4.85773 23.984,-11.54196 33.8546,-33.51458 33.8546,-33.51458 0,0 10.6742,-26.37384 -0.7015,-39.54335 -13.6147,-15.76144 -29.6251,-14.14754 -42.8985,-1.13893 z"
         id="path3143"
         inkscape:connector-curvature="0"
         sodipodi:nodetypes="sssscss"
         inkscape:transform-center-x="23.784441"
         inkscape:transform-center-y="31.074941" />
      <path
         inkscape:transform-center-y="31.074941"
         inkscape:transform-center-x="23.784441"
         sodipodi:nodetypes="ssssccs"
         inkscape:connector-curvature="0"
         id="path3145"
         d="m 1263.3941,471.57031 c -11.313,11.08728 -2.2771,26.32166 -18.098,44.92311 -15.821,18.60145 -43.6017,31.15321 -38.8196,40.88148 3.832,7.79558 41.9292,6.68425 65.913,-4.85773 23.984,-11.54196 33.8546,-33.51458 33.8546,-33.51458 17.611,-36.58758 -0.5731,-54.1217 -17.7588,-56.59139 -10.362,0.25208 -18.8994,3.09081 -25.0912,9.15911 z"
         style="fill:#ff4690;fill-opacity:1;stroke:none" />
      <path
         id="path3147"
         d="m 1313.2812,488.92468 c -25.1515,59.68591 -66.1429,64.08435 -106.3437,69.125 5.6862,7.03469 42.1803,5.66105 65.4375,-5.53125 23.984,-11.54196 33.875,-33.53125 33.875,-33.53125 5.8011,-12.05196 7.683,-22.00274 7.0312,-30.0625 z"
         style="opacity:0.14798207;fill:#000000;fill-opacity:1;fill-rule:nonzero;stroke:none"
         inkscape:connector-curvature="0" />
      <path
         id="path3149"
         transform="translate(0,352.36218)"
         d="m 1259.8438,123.90625 c -5.7676,10.55034 -0.8665,24.11565 -14.5626,40.21875 -7.6343,8.976 -17.9861,16.54132 -26.1874,23.0625 35.8178,-14.08984 41.7128,-27.9914 40.75,-63.28125 z"
         style="opacity:0.14798207;fill:#ffffff;fill-opacity:1;fill-rule:nonzero;stroke:none"
         inkscape:connector-curvature="0" />
    </g>
    <g
       id="g4360"
       transform="translate(-1470.7839,-305.09308)"
       inkscape:export-filename="C:\Users\robert\Desktop\pink_monster\Peices\blink2.png"
       inkscape:export-xdpi="90"
       inkscape:export-ydpi="90">
      <path
         inkscape:connector-curvature="0"
         id="path3227"
         d="m 2419.969,1327.3738 c 0,22.726 -18.4231,41.149 -41.1491,41.149 -22.726,0 -41.149,-18.423 -41.149,-41.149 0,-22.726 18.423,-41.1491 41.149,-41.1491 22.726,0 41.1491,18.4231 41.1491,41.1491 z"
         style="fill:#000000;fill-opacity:1;fill-rule:nonzero;stroke:none" />
      <path
         inkscape:connector-curvature="0"
         id="path3229"
         d="m 2413.6384,1327.3738 c 0,19.2297 -15.5888,34.8184 -34.8185,34.8184 -19.2297,0 -34.8184,-15.5887 -34.8184,-34.8184 0,-19.2297 15.5887,-34.8185 34.8184,-34.8185 19.2297,0 34.8185,15.5888 34.8185,34.8185 z"
         style="fill:#ffffff;fill-opacity:1;fill-rule:nonzero;stroke:none" />
      <path
         inkscape:connector-curvature="0"
         id="path3231"
         d="m 2377.7648,1322.6258 c 0,7.8667 -6.3772,14.2439 -14.2439,14.2439 -7.8667,0 -14.2439,-6.3772 -14.2439,-14.2439 0,-7.8667 6.3772,-14.2439 14.2439,-14.2439 7.8667,0 14.2439,6.3772 14.2439,14.2439 z"
         style="fill:#000000;fill-opacity:1;fill-rule:nonzero;stroke:none" />
      <path
         inkscape:connector-curvature="0"
         id="path3233"
         d="m 2360.0621,1321.8797 c 0,2.0395 -1.6533,3.6929 -3.6929,3.6929 -2.0395,0 -3.6928,-1.6534 -3.6928,-3.6929 0,-2.0395 1.6533,-3.6928 3.6928,-3.6928 2.0396,0 3.6929,1.6533 3.6929,3.6928 z"
         style="fill:#ffffff;fill-opacity:1;fill-rule:nonzero;stroke:none" />
      <path
         sodipodi:nodetypes="scsscss"
         inkscape:connector-curvature="0"
         id="path4207"
         d="m 2376.4915,1292.6392 c -18.8842,1.3799 -33.12,17.5763 -32.2155,36.382 3.4605,-0.8635 7.1114,-1.4596 10.9024,-1.7367 23.9684,-1.7514 49.2546,5.1267 50.4196,21.0691 0.039,0.5402 -4.8652,5.7106 -4.8704,6.2466 8.676,-6.9235 13.9221,-17.874 13.052,-29.7804 -1.4014,-19.1786 -18.1096,-33.582 -37.2881,-32.1806 z"
         style="fill:#000000;fill-opacity:1;fill-rule:nonzero;stroke:#000000;stroke-width:9;stroke-miterlimit:4;stroke-dasharray:none" />
      <path
         style="fill:#000000;fill-opacity:1;fill-rule:nonzero;stroke:none"
         d="m 2467.4487,1327.3738 c 0,22.726 -18.4231,41.149 -41.1491,41.149 -22.726,0 -41.149,-18.423 -41.149,-41.149 0,-22.726 18.423,-41.1491 41.149,-41.1491 22.726,0 41.1491,18.4231 41.1491,41.1491 z"
         id="path3235"
         inkscape:connector-curvature="0" />
      <path
         style="fill:#ff4690;fill-opacity:1;fill-rule:nonzero;stroke:none"
         d="m 2376.4915,1292.6392 c -18.8842,1.3799 -33.12,17.5763 -32.2155,36.382 3.4605,-0.8635 7.1114,-1.4596 10.9024,-1.7367 23.9684,-1.7514 49.2546,5.1267 50.4196,21.0691 0.039,0.5402 9.0517,-11.6274 8.1816,-23.5338 -1.4014,-19.1786 -18.1096,-33.582 -37.2881,-32.1806 z"
         id="path4218"
         inkscape:connector-curvature="0"
         sodipodi:nodetypes="scssss" />
      <path
         style="fill:#ffffff;fill-opacity:1;fill-rule:nonzero;stroke:none"
         d="m 2461.118,1327.3738 c 0,19.2297 -15.5887,34.8184 -34.8184,34.8184 -19.2297,0 -34.8184,-15.5887 -34.8184,-34.8184 0,-19.2297 15.5887,-34.8185 34.8184,-34.8185 19.2297,0 34.8184,15.5888 34.8184,34.8185 z"
         id="path3237"
         inkscape:connector-curvature="0" />
      <path
         style="fill:#000000;fill-opacity:1;fill-rule:nonzero;stroke:none"
         d="m 2425.2445,1323.5097 c 0,8.3548 -6.3772,15.1278 -14.2439,15.1278 -7.8667,0 -14.2439,-6.773 -14.2439,-15.1278 0,-8.3549 6.3772,-15.1278 14.2439,-15.1278 7.8667,0 14.2439,6.7729 14.2439,15.1278 z"
         id="path3239"
         inkscape:connector-curvature="0" />
      <path
         style="fill:#ffffff;fill-opacity:1;fill-rule:nonzero;stroke:none"
         d="m 2407.5418,1321.8797 c 0,2.0395 -1.6534,3.6929 -3.6929,3.6929 -2.0395,0 -3.6928,-1.6534 -3.6928,-3.6929 0,-2.0395 1.6533,-3.6928 3.6928,-3.6928 2.0395,0 3.6929,1.6533 3.6929,3.6928 z"
         id="path3241"
         inkscape:connector-curvature="0" />
      <path
         sodipodi:nodetypes="sscscss"
         inkscape:connector-curvature="0"
         id="path4209"
         d="m 2425.4332,1292.4954 c -19.2222,0.5368 -36.7297,17.4182 -33.7383,38.0696 0.1662,1.1473 0.074,2.3066 0.192,3.4357 6.5791,-2.7606 14.3261,-4.3997 22.6417,-4.4865 19.1567,-0.1998 35.5141,4.5598 41.6416,15.8313 3.3634,-5.535 5.2277,-12.0667 5.0335,-19.0228 -0.5368,-19.2222 -16.5485,-34.364 -35.7707,-33.8273 z"
         style="fill:#000000;fill-opacity:1;fill-rule:nonzero;stroke:#000000;stroke-width:9;stroke-miterlimit:4;stroke-dasharray:none" />
      <path
         style="fill:#ff4690;fill-opacity:1;fill-rule:nonzero;stroke:none"
         d="m 2425.4332,1292.4954 c -19.2222,0.5368 -36.7297,17.4182 -33.7383,38.0696 0.1662,1.1473 0.074,2.3066 0.192,3.4357 6.5791,-2.7606 14.3261,-4.3997 22.6417,-4.4865 19.1567,-0.1998 35.5141,4.5598 41.6416,15.8313 3.3634,-5.535 5.2277,-12.0667 5.0335,-19.0228 -0.5368,-19.2222 -16.5485,-34.364 -35.7707,-33.8273 z"
         id="path4220"
         inkscape:connector-curvature="0"
         sodipodi:nodetypes="sscscss" />
    </g>
    <path
       style="fill:#000000;fill-opacity:1;fill-rule:nonzero;stroke:none"
       d="m 1170.6462,404.20775 c -7.8667,0 -14.2188,6.352 -14.2188,14.2187 0,7.8667 6.3521,14.25 14.2188,14.25 7.8666,0 14.25,-6.3833 14.25,-14.25 0,-7.8667 -6.3834,-14.2187 -14.25,-14.2187 z m -7.1563,9.7812 c 2.0395,0 3.7188,1.648 3.7188,3.6875 0,2.0395 -1.6793,3.7187 -3.7188,3.7187 -2.0395,0 -3.6875,-1.6792 -3.6875,-3.7187 0,-2.0395 1.648,-3.6875 3.6875,-3.6875 z"
       id="path3101"
       inkscape:connector-curvature="0" />
    <path
       style="fill:#000000;fill-opacity:1;fill-rule:nonzero;stroke:none"
       d="m 1104.1462,404.20775 c -7.8667,0 -14.25,6.352 -14.25,14.2187 0,7.8667 6.3833,14.25 14.25,14.25 7.8666,0 14.2187,-6.3833 14.2187,-14.25 0,-7.8667 -6.3521,-14.2187 -14.2187,-14.2187 z m -7.1563,9.7812 c 2.0395,0 3.6875,1.648 3.6875,3.6875 0,2.0395 -1.648,3.7187 -3.6875,3.7187 -2.0395,0 -3.6875,-1.6792 -3.6875,-3.7187 0,-2.0395 1.648,-3.6875 3.6875,-3.6875 z"
       id="path3109"
       inkscape:connector-curvature="0"
       inkscape:export-filename="C:\Users\robert\Desktop\pink_monster\Peices\pupil.png"
       inkscape:export-xdpi="90"
       inkscape:export-ydpi="90" />
    <g
       id="g4346"
       transform="translate(-1177.7199,-139.97428)"
       inkscape:export-filename="C:\Users\robert\Desktop\pink_monster\Peices\blink1.png"
       inkscape:export-xdpi="90"
       inkscape:export-ydpi="90">
      <path
         style="fill:#000000;fill-opacity:1;fill-rule:nonzero;stroke:none"
         d="m 1938.0365,1371.5586 c 0,22.726 -18.4231,41.149 -41.1491,41.149 -22.726,0 -41.149,-18.423 -41.149,-41.149 0,-22.726 18.423,-41.1491 41.149,-41.1491 22.726,0 41.1491,18.4231 41.1491,41.1491 z"
         id="path3185"
         inkscape:connector-curvature="0" />
      <path
         style="fill:#ffffff;fill-opacity:1;fill-rule:nonzero;stroke:none"
         d="m 1931.7059,1371.5586 c 0,19.2297 -15.5888,34.8184 -34.8185,34.8184 -19.2297,0 -34.8184,-15.5887 -34.8184,-34.8184 0,-19.2297 15.5887,-34.8185 34.8184,-34.8185 19.2297,0 34.8185,15.5888 34.8185,34.8185 z"
         id="path3187"
         inkscape:connector-curvature="0" />
      <path
         style="fill:#000000;fill-opacity:1;fill-rule:nonzero;stroke:none"
         d="m 1895.8323,1366.8106 c 0,7.8667 -6.3772,14.2439 -14.2439,14.2439 -7.8667,0 -14.2439,-6.3772 -14.2439,-14.2439 0,-7.8667 6.3772,-14.2439 14.2439,-14.2439 7.8667,0 14.2439,6.3772 14.2439,14.2439 z"
         id="path3189"
         inkscape:connector-curvature="0" />
      <path
         style="fill:#ffffff;fill-opacity:1;fill-rule:nonzero;stroke:none"
         d="m 1878.1296,1366.0645 c 0,2.0395 -1.6533,3.6929 -3.6929,3.6929 -2.0395,0 -3.6928,-1.6534 -3.6928,-3.6929 0,-2.0395 1.6533,-3.6928 3.6928,-3.6928 2.0396,0 3.6929,1.6533 3.6929,3.6928 z"
         id="path3191"
         inkscape:connector-curvature="0" />
      <path
         inkscape:connector-curvature="0"
         id="path3390"
         d="m 1892.7273,1337.1118 c -14.0082,1.0579 -25.4198,10.2751 -30.0055,22.6364 5.3466,-2.5491 11.3844,-4.213 17.884,-4.7038 23.4587,-1.7717 43.6775,12.3285 45.1257,31.5034 0.054,0.717 0.068,1.4471 0.069,2.1573 3.1921,-5.7461 4.8255,-12.459 4.2934,-19.5037 -1.4481,-19.1751 -18.1914,-33.5378 -37.3665,-32.0896 z"
         style="fill:#ff4690;fill-opacity:1;fill-rule:nonzero;stroke:#000000;stroke-width:9;stroke-linejoin:round;stroke-miterlimit:4;stroke-dasharray:none" />
      <path
         inkscape:connector-curvature="0"
         id="path3193"
         d="m 1985.5162,1371.5586 c 0,22.726 -18.4231,41.149 -41.1491,41.149 -22.726,0 -41.149,-18.423 -41.149,-41.149 0,-22.726 18.423,-41.1491 41.149,-41.1491 22.726,0 41.1491,18.4231 41.1491,41.1491 z"
         style="fill:#000000;fill-opacity:1;fill-rule:nonzero;stroke:none" />
      <path
         style="fill:#ff4690;fill-opacity:1;fill-rule:nonzero;stroke:none"
         d="m 1894.9463,1336.5036 c -14.0292,0.7296 -25.6535,9.6769 -30.5274,21.9275 5.4048,-2.4233 11.4799,-3.9452 17.9893,-4.2838 23.4937,-1.2217 43.3767,13.3481 44.3754,32.5517 0.037,0.7181 0.034,1.4483 0.018,2.1583 3.3258,-5.6698 5.1159,-12.3425 4.749,-19.3978 -0.9987,-19.2037 -17.401,-33.9546 -36.6047,-32.9559 z"
         id="path4202"
         inkscape:connector-curvature="0" />
      <path
         inkscape:connector-curvature="0"
         id="path3195"
         d="m 1979.1855,1371.5586 c 0,19.2297 -15.5887,34.8184 -34.8184,34.8184 -19.2297,0 -34.8184,-15.5887 -34.8184,-34.8184 0,-19.2297 15.5887,-34.8185 34.8184,-34.8185 19.2297,0 34.8184,15.5888 34.8184,34.8185 z"
         style="fill:#ffffff;fill-opacity:1;fill-rule:nonzero;stroke:none" />
      <path
         inkscape:connector-curvature="0"
         id="path3197"
         d="m 1943.312,1366.8106 c 0,7.8667 -6.3772,14.2439 -14.2439,14.2439 -7.8667,0 -14.2439,-6.3772 -14.2439,-14.2439 0,-7.8667 6.3772,-14.2439 14.2439,-14.2439 7.8667,0 14.2439,6.3772 14.2439,14.2439 z"
         style="fill:#000000;fill-opacity:1;fill-rule:nonzero;stroke:none" />
      <path
         inkscape:connector-curvature="0"
         id="path3199"
         d="m 1925.6093,1366.0645 c 0,2.0395 -1.6534,3.6929 -3.6929,3.6929 -2.0395,0 -3.6928,-1.6534 -3.6928,-3.6929 0,-2.0395 1.6533,-3.6928 3.6928,-3.6928 2.0395,0 3.6929,1.6533 3.6929,3.6928 z"
         style="fill:#ffffff;fill-opacity:1;fill-rule:nonzero;stroke:none" />
      <path
         inkscape:connector-curvature="0"
         id="path3392"
         d="m 1944.375,1336.7372 c -16.9673,0 -31.0969,12.1533 -34.1875,28.2188 7.7847,-6.9137 18.9423,-11.25 31.3437,-11.25 16.2963,0 30.4621,7.4797 37.625,18.4687 0,-0.2065 0.031,-0.4177 0.031,-0.625 0,-19.2297 -15.5828,-34.8125 -34.8125,-34.8125 z"
         style="fill:#ff4690;fill-opacity:1;fill-rule:nonzero;stroke:#000000;stroke-width:9;stroke-linejoin:round;stroke-miterlimit:4;stroke-dasharray:none" />
      <path
         style="fill:#ff4690;fill-opacity:1;fill-rule:nonzero;stroke:none"
         d="m 1944.375,1336.7372 c -16.9673,0 -31.0969,12.1533 -34.1875,28.2188 7.7847,-6.9137 18.9423,-11.25 31.3437,-11.25 16.2963,0 30.4621,7.4797 37.625,18.4687 0,-0.2065 0.031,-0.4177 0.031,-0.625 0,-19.2297 -15.5828,-34.8125 -34.8125,-34.8125 z"
         id="path4205"
         inkscape:connector-curvature="0" />
    </g>
    <g
       id="g4374"
       transform="translate(-1790.7249,-191.24888)"
       inkscape:export-filename="C:\Users\robert\Desktop\pink_monster\Peices\blink3.png"
       inkscape:export-xdpi="90"
       inkscape:export-ydpi="90">
      <path
         style="fill:#000000;fill-opacity:1;fill-rule:nonzero;stroke:none"
         d="m 2734.9446,1318.1814 c 0,22.726 -18.4231,41.149 -41.1491,41.149 -22.726,0 -41.149,-18.423 -41.149,-41.149 0,-22.726 18.423,-41.1491 41.149,-41.1491 22.726,0 41.1491,18.4231 41.1491,41.1491 z"
         id="path3269"
         inkscape:connector-curvature="0" />
      <path
         style="fill:#ffffff;fill-opacity:1;fill-rule:nonzero;stroke:none"
         d="m 2728.614,1318.1814 c 0,19.2297 -15.5888,34.8184 -34.8185,34.8184 -19.2297,0 -34.8184,-15.5887 -34.8184,-34.8184 0,-19.2297 15.5887,-34.8185 34.8184,-34.8185 19.2297,0 34.8185,15.5888 34.8185,34.8185 z"
         id="path3271"
         inkscape:connector-curvature="0" />
      <path
         style="fill:#000000;fill-opacity:1;fill-rule:nonzero;stroke:none"
         d="m 2692.7404,1313.4334 c 0,7.8667 -6.3772,14.2439 -14.2439,14.2439 -7.8667,0 -14.2439,-6.3772 -14.2439,-14.2439 0,-7.8667 6.3772,-14.2439 14.2439,-14.2439 7.8667,0 14.2439,6.3772 14.2439,14.2439 z"
         id="path3273"
         inkscape:connector-curvature="0" />
      <path
         style="fill:#ffffff;fill-opacity:1;fill-rule:nonzero;stroke:none"
         d="m 2675.0377,1312.6873 c 0,2.0395 -1.6533,3.6929 -3.6929,3.6929 -2.0395,0 -3.6928,-1.6534 -3.6928,-3.6929 0,-2.0395 1.6533,-3.6928 3.6928,-3.6928 2.0396,0 3.6929,1.6533 3.6929,3.6928 z"
         id="path3275"
         inkscape:connector-curvature="0" />
      <path
         sodipodi:nodetypes="sccccs"
         inkscape:connector-curvature="0"
         id="path4260"
         d="m 2685.9611,1284.0064 c -19.1093,3.6803 -31.3567,20.926 -27.3612,38.5276 1.3601,5.9914 1.6214,11.2526 5.8297,15.4393 16.6568,-2.629 35.1892,0.069 45.6922,6.4929 13.3479,-6.689 20.9679,-20.8579 17.698,-35.2634 -3.9956,-17.6015 -22.7497,-28.8767 -41.8587,-25.1964 z"
         style="fill:#ff4690;fill-opacity:1;fill-rule:nonzero;stroke:#000000;stroke-width:9;stroke-miterlimit:4;stroke-dasharray:none" />
      <path
         inkscape:connector-curvature="0"
         id="path3277"
         d="m 2782.4243,1318.1814 c 0,22.726 -18.4231,41.149 -41.1491,41.149 -22.726,0 -41.149,-18.423 -41.149,-41.149 0,-22.726 18.423,-41.1491 41.149,-41.1491 22.726,0 41.1491,18.4231 41.1491,41.1491 z"
         style="fill:#000000;fill-opacity:1;fill-rule:nonzero;stroke:none" />
      <path
         inkscape:connector-curvature="0"
         id="path3279"
         d="m 2776.0936,1318.1814 c 0,19.2297 -15.5887,34.8184 -34.8184,34.8184 -19.2297,0 -34.8184,-15.5887 -34.8184,-34.8184 0,-19.2297 15.5887,-34.8185 34.8184,-34.8185 19.2297,0 34.8184,15.5888 34.8184,34.8185 z"
         style="fill:#ffffff;fill-opacity:1;fill-rule:nonzero;stroke:none" />
      <path
         inkscape:connector-curvature="0"
         id="path3281"
         d="m 2740.2201,1313.4334 c 0,7.8667 -6.3772,14.2439 -14.2439,14.2439 -7.8667,0 -14.2439,-6.3772 -14.2439,-14.2439 0,-7.8667 6.3772,-14.2439 14.2439,-14.2439 7.8667,0 14.2439,6.3772 14.2439,14.2439 z"
         style="fill:#000000;fill-opacity:1;fill-rule:nonzero;stroke:none" />
      <path
         inkscape:connector-curvature="0"
         id="path3283"
         d="m 2722.5174,1312.6873 c 0,2.0395 -1.6534,3.6929 -3.6929,3.6929 -2.0395,0 -3.6928,-1.6534 -3.6928,-3.6929 0,-2.0395 1.6533,-3.6928 3.6928,-3.6928 2.0395,0 3.6929,1.6533 3.6929,3.6928 z"
         style="fill:#ffffff;fill-opacity:1;fill-rule:nonzero;stroke:none" />
      <path
         style="fill:#ff4690;fill-opacity:1;fill-rule:nonzero;stroke:none"
         d="m 2685.9611,1284.0064 c -19.1093,3.6803 -31.3567,20.926 -27.3612,38.5276 1.3601,5.9914 1.6214,11.2526 5.8297,15.4393 16.6568,-2.629 35.1892,0.069 45.6922,6.4929 13.3479,-6.689 20.9679,-20.8579 17.698,-35.2634 -3.9956,-17.6015 -22.7497,-28.8767 -41.8587,-25.1964 z"
         id="path4304"
         inkscape:connector-curvature="0"
         sodipodi:nodetypes="sccccs" />
      <path
         sodipodi:nodetypes="sscscss"
         inkscape:connector-curvature="0"
         id="path4262"
         d="m 2741.2831,1283.36 c -19.2297,0 -34.8125,15.5828 -34.8125,34.8125 0,7.4993 2.1964,16.5632 6.2295,22.2463 5.6759,-1.4674 11.8146,-2.25 18.25,-2.25 12.6518,0 27.4224,0.2721 32.3035,7.0126 7.2259,-6.3799 12.842,-16.6118 12.842,-27.0089 0,-19.2297 -15.5828,-34.8125 -34.8125,-34.8125 z"
         style="fill:#ff4690;fill-opacity:1;fill-rule:nonzero;stroke:#000000;stroke-width:9;stroke-miterlimit:4;stroke-dasharray:none" />
      <path
         style="fill:#ff4690;fill-opacity:1;fill-rule:nonzero;stroke:none"
         d="m 2741.2831,1283.36 c -19.2297,0 -34.8125,15.5828 -34.8125,34.8125 0,7.4993 2.1964,16.5632 6.2295,22.2463 5.6759,-1.4674 11.8146,-2.25 18.25,-2.25 12.6518,0 28.3063,1.5095 33.1874,8.25 7.2259,-6.3799 11.9581,-17.8492 11.9581,-28.2463 0,-19.2297 -15.5828,-34.8125 -34.8125,-34.8125 z"
         id="path4306"
         inkscape:connector-curvature="0"
         sodipodi:nodetypes="sscscss" />
    </g>
    <g
       transform="translate(957.37086,425.67665)"
       id="g4428"
       inkscape:export-filename="C:\Users\robert\Desktop\pink_monster\Peices\open-eyes.png"
       inkscape:export-xdpi="90"
       inkscape:export-ydpi="90">
      <path
         inkscape:connector-curvature="0"
         id="path4432"
         d="m -196.62702,602.26087 c 0,22.726 -18.42305,41.14905 -41.14906,41.14905 -22.726,0 -41.14905,-18.42305 -41.14905,-41.14905 0,-22.72599 18.42305,-41.14906 41.14905,-41.14906 22.72601,0 41.14906,18.42307 41.14906,41.14906 z"
         style="fill:#000000;fill-opacity:1;fill-rule:nonzero;stroke:none" />
      <path
         inkscape:connector-curvature="0"
         id="path4434"
         d="m -202.95764,602.26087 c 0,19.22969 -15.58874,34.81843 -34.81844,34.81843 -19.22969,0 -34.81843,-15.58874 -34.81843,-34.81843 0,-19.22969 15.58874,-34.81844 34.81843,-34.81844 19.2297,0 34.81844,15.58875 34.81844,34.81844 z"
         style="fill:#ffffff;fill-opacity:1;fill-rule:nonzero;stroke:none" />
      <path
         inkscape:connector-curvature="0"
         id="path4436"
         d="m -238.83118,597.5129 c 0,7.86669 -6.37722,14.2439 -14.2439,14.2439 -7.86669,0 -14.24391,-6.37721 -14.24391,-14.2439 0,-7.86669 6.37722,-14.24391 14.24391,-14.24391 7.86668,0 14.2439,6.37722 14.2439,14.24391 z"
         style="fill:#000000;fill-opacity:1;fill-rule:nonzero;stroke:none" />
      <path
         inkscape:connector-curvature="0"
         id="path4438"
         d="m -256.53389,596.76682 c 0,2.03952 -1.65335,3.69287 -3.69287,3.69287 -2.03951,0 -3.69286,-1.65335 -3.69286,-3.69287 0,-2.0395 1.65335,-3.69286 3.69286,-3.69286 2.03952,0 3.69287,1.65336 3.69287,3.69286 z"
         style="fill:#ffffff;fill-opacity:1;fill-rule:nonzero;stroke:none" />
      <path
         style="fill:#000000;fill-opacity:1;fill-rule:nonzero;stroke:none"
         d="m -149.14734,602.26087 c 0,22.726 -18.42305,41.14905 -41.14906,41.14905 -22.726,0 -41.14905,-18.42305 -41.14905,-41.14905 0,-22.72599 18.42305,-41.14906 41.14905,-41.14906 22.72601,0 41.14906,18.42307 41.14906,41.14906 z"
         id="path4440"
         inkscape:connector-curvature="0" />
      <path
         style="fill:#ffffff;fill-opacity:1;fill-rule:nonzero;stroke:none"
         d="m -155.47796,602.26087 c 0,19.22969 -15.58874,34.81843 -34.81844,34.81843 -19.22969,0 -34.81843,-15.58874 -34.81843,-34.81843 0,-19.22969 15.58874,-34.81844 34.81843,-34.81844 19.2297,0 34.81844,15.58875 34.81844,34.81844 z"
         id="path4442"
         inkscape:connector-curvature="0" />
      <path
         style="fill:#000000;fill-opacity:1;fill-rule:nonzero;stroke:none"
         d="m -191.3515,597.5129 c 0,7.86669 -6.37722,14.2439 -14.2439,14.2439 -7.86669,0 -14.24391,-6.37721 -14.24391,-14.2439 0,-7.86669 6.37722,-14.24391 14.24391,-14.24391 7.86668,0 14.2439,6.37722 14.2439,14.24391 z"
         id="path4444"
         inkscape:connector-curvature="0" />
      <path
         style="fill:#ffffff;fill-opacity:1;fill-rule:nonzero;stroke:none"
         d="m -209.05421,596.76682 c 0,2.03952 -1.65335,3.69287 -3.69287,3.69287 -2.03951,0 -3.69286,-1.65335 -3.69286,-3.69287 0,-2.0395 1.65335,-3.69286 3.69286,-3.69286 2.03952,0 3.69287,1.65336 3.69287,3.69286 z"
         id="path4446"
         inkscape:connector-curvature="0" />
    </g>
    <g
       inkscape:export-ydpi="90"
       inkscape:export-xdpi="90"
       inkscape:export-filename="C:\Users\robert\Desktop\pink_monster\Peices\open-eyes-no-pupil.png"
       id="g4452"
       transform="translate(957.37086,529.67665)">
      <path
         style="fill:#000000;fill-opacity:1;fill-rule:nonzero;stroke:none"
         d="m -196.62702,602.26087 c 0,22.726 -18.42305,41.14905 -41.14906,41.14905 -22.726,0 -41.14905,-18.42305 -41.14905,-41.14905 0,-22.72599 18.42305,-41.14906 41.14905,-41.14906 22.72601,0 41.14906,18.42307 41.14906,41.14906 z"
         id="path4454"
         inkscape:connector-curvature="0" />
      <path
         style="fill:#ffffff;fill-opacity:1;fill-rule:nonzero;stroke:none"
         d="m -202.95764,602.26087 c 0,19.22969 -15.58874,34.81843 -34.81844,34.81843 -19.22969,0 -34.81843,-15.58874 -34.81843,-34.81843 0,-19.22969 15.58874,-34.81844 34.81843,-34.81844 19.2297,0 34.81844,15.58875 34.81844,34.81844 z"
         id="path4456"
         inkscape:connector-curvature="0" />
      <path
         style="fill:#ffffff;fill-opacity:1;fill-rule:nonzero;stroke:none"
         d="m -256.53389,596.76682 c 0,2.03952 -1.65335,3.69287 -3.69287,3.69287 -2.03951,0 -3.69286,-1.65335 -3.69286,-3.69287 0,-2.0395 1.65335,-3.69286 3.69286,-3.69286 2.03952,0 3.69287,1.65336 3.69287,3.69286 z"
         id="path4460"
         inkscape:connector-curvature="0" />
      <path
         inkscape:connector-curvature="0"
         id="path4462"
         d="m -149.14734,602.26087 c 0,22.726 -18.42305,41.14905 -41.14906,41.14905 -22.726,0 -41.14905,-18.42305 -41.14905,-41.14905 0,-22.72599 18.42305,-41.14906 41.14905,-41.14906 22.72601,0 41.14906,18.42307 41.14906,41.14906 z"
         style="fill:#000000;fill-opacity:1;fill-rule:nonzero;stroke:none" />
      <path
         inkscape:connector-curvature="0"
         id="path4464"
         d="m -155.47796,602.26087 c 0,19.22969 -15.58874,34.81843 -34.81844,34.81843 -19.22969,0 -34.81843,-15.58874 -34.81843,-34.81843 0,-19.22969 15.58874,-34.81844 34.81843,-34.81844 19.2297,0 34.81844,15.58875 34.81844,34.81844 z"
         style="fill:#ffffff;fill-opacity:1;fill-rule:nonzero;stroke:none" />
      <path
         inkscape:connector-curvature="0"
         id="path4468"
         d="m -209.05421,596.76682 c 0,2.03952 -1.65335,3.69287 -3.69287,3.69287 -2.03951,0 -3.69286,-1.65335 -3.69286,-3.69287 0,-2.0395 1.65335,-3.69286 3.69286,-3.69286 2.03952,0 3.69287,1.65336 3.69287,3.69286 z"
         style="fill:#ffffff;fill-opacity:1;fill-rule:nonzero;stroke:none" />
    </g>
    <g
       id="g4864"
       inkscape:export-filename="C:\Users\robert\Desktop\pink_monster\Peices\body.png"
       inkscape:export-xdpi="90"
       inkscape:export-ydpi="90"
       transform="translate(-607.82755,441.23464)">
      <path
         id="path4802"
         d="m 1940.4035,409.06934 c -16.9704,-0.14507 -29.2455,8.89336 -31.3437,8.90625 -6.3191,0.0388 -27.0438,-15.04193 -52.3125,5.65625 -30.282,24.80457 -11.1506,65.9986 -18.1876,82.9375 -27.3716,33.27462 -44.0312,77.23117 -44.0312,125.4375 0,103.82953 77.2309,188 172.5,188 95.2691,0 172.5,-84.17047 172.5,-188 0,-92.79534 -61.6918,-169.88114 -142.8125,-185.21875 -1.8126,-0.94984 -3.2446,-2.05048 -4.1562,-3.375 -18.5343,-26.92742 -37.1824,-34.21575 -52.1563,-34.34375 z"
         style="fill:none;stroke:#000000;stroke-width:14;stroke-miterlimit:4;stroke-opacity:1;stroke-dasharray:none"
         inkscape:connector-curvature="0" />
      <path
         style="fill:#ff4690;fill-opacity:1;fill-rule:nonzero;stroke:none"
         d="m 1940.4035,409.06934 c -16.9704,-0.14507 -29.2455,8.89336 -31.3437,8.90625 -6.3191,0.0388 -27.0438,-15.04193 -52.3125,5.65625 -30.282,24.80457 -11.1506,65.9986 -18.1876,82.9375 -27.3716,33.27462 -44.0312,77.23117 -44.0312,125.4375 0,103.82953 77.2309,188 172.5,188 95.2691,0 172.5,-84.17047 172.5,-188 0,-92.79534 -61.6918,-169.88114 -142.8125,-185.21875 -1.8126,-0.94984 -3.2446,-2.05048 -4.1562,-3.375 -18.5343,-26.92742 -37.1824,-34.21575 -52.1563,-34.34375 z"
         id="path4804"
         inkscape:connector-curvature="0" />
      <g
         id="g4806"
         transform="translate(2125.5285,-139.85534)">
        <path
           sodipodi:nodetypes="ccccc"
           inkscape:connector-curvature="0"
           id="path4808"
           d="m -277.91142,590.93095 60.8048,30.21588 67.1464,-26.11249 c 1.18932,38.99234 -21.25318,61.68947 -71.62283,51.10588 -64.00785,18.35892 -57.65821,-53.16737 -56.32837,-55.20927 z"
           style="opacity:0.161435;fill:#000000;stroke:none" />
        <path
           style="fill:#000000;fill-opacity:1;fill-rule:nonzero;stroke:none"
           d="m -196.62702,602.26087 c 0,22.726 -18.42305,41.14905 -41.14906,41.14905 -22.726,0 -41.14905,-18.42305 -41.14905,-41.14905 0,-22.72599 18.42305,-41.14906 41.14905,-41.14906 22.72601,0 41.14906,18.42307 41.14906,41.14906 z"
           id="path4810"
           inkscape:connector-curvature="0" />
        <path
           style="fill:#ffffff;fill-opacity:1;fill-rule:nonzero;stroke:none"
           d="m -202.95764,602.26087 c 0,19.22969 -15.58874,34.81843 -34.81844,34.81843 -19.22969,0 -34.81843,-15.58874 -34.81843,-34.81843 0,-19.22969 15.58874,-34.81844 34.81843,-34.81844 19.2297,0 34.81844,15.58875 34.81844,34.81844 z"
           id="path4812"
           inkscape:connector-curvature="0" />
        <path
           style="fill:#000000;fill-opacity:1;fill-rule:nonzero;stroke:none"
           d="m -238.83118,597.5129 c 0,7.86669 -6.37722,14.2439 -14.2439,14.2439 -7.86669,0 -14.24391,-6.37721 -14.24391,-14.2439 0,-7.86669 6.37722,-14.24391 14.24391,-14.24391 7.86668,0 14.2439,6.37722 14.2439,14.24391 z"
           id="path4814"
           inkscape:connector-curvature="0" />
        <path
           style="fill:#ffffff;fill-opacity:1;fill-rule:nonzero;stroke:none"
           d="m -256.53389,596.76682 c 0,2.03952 -1.65335,3.69287 -3.69287,3.69287 -2.03951,0 -3.69286,-1.65335 -3.69286,-3.69287 0,-2.0395 1.65335,-3.69286 3.69286,-3.69286 2.03952,0 3.69287,1.65336 3.69287,3.69286 z"
           id="path4816"
           inkscape:connector-curvature="0" />
        <path
           inkscape:connector-curvature="0"
           id="path4818"
           d="m -149.14734,602.26087 c 0,22.726 -18.42305,41.14905 -41.14906,41.14905 -22.726,0 -41.14905,-18.42305 -41.14905,-41.14905 0,-22.72599 18.42305,-41.14906 41.14905,-41.14906 22.72601,0 41.14906,18.42307 41.14906,41.14906 z"
           style="fill:#000000;fill-opacity:1;fill-rule:nonzero;stroke:none" />
        <path
           inkscape:connector-curvature="0"
           id="path4820"
           d="m -155.47796,602.26087 c 0,19.22969 -15.58874,34.81843 -34.81844,34.81843 -19.22969,0 -34.81843,-15.58874 -34.81843,-34.81843 0,-19.22969 15.58874,-34.81844 34.81843,-34.81844 19.2297,0 34.81844,15.58875 34.81844,34.81844 z"
           style="fill:#ffffff;fill-opacity:1;fill-rule:nonzero;stroke:none" />
        <path
           inkscape:connector-curvature="0"
           id="path4822"
           d="m -191.3515,597.5129 c 0,7.86669 -6.37722,14.2439 -14.2439,14.2439 -7.86669,0 -14.24391,-6.37721 -14.24391,-14.2439 0,-7.86669 6.37722,-14.24391 14.24391,-14.24391 7.86668,0 14.2439,6.37722 14.2439,14.24391 z"
           style="fill:#000000;fill-opacity:1;fill-rule:nonzero;stroke:none" />
        <path
           inkscape:connector-curvature="0"
           id="path4824"
           d="m -209.05421,596.76682 c 0,2.03952 -1.65335,3.69287 -3.69287,3.69287 -2.03951,0 -3.69286,-1.65335 -3.69286,-3.69287 0,-2.0395 1.65335,-3.69286 3.69286,-3.69286 2.03952,0 3.69287,1.65336 3.69287,3.69286 z"
           style="fill:#ffffff;fill-opacity:1;fill-rule:nonzero;stroke:none" />
        <path
           sodipodi:nodetypes="ccsc"
           inkscape:connector-curvature="0"
           id="path4826"
           d="m -153.74909,632.37994 c 15.80393,-26.74243 9.49326,-41.61906 1.03099,-55.39485 0,0 15.06665,12.6243 15.12102,28.81651 0.0489,14.52928 -16.15201,26.57834 -16.15201,26.57834 z"
           style="opacity:0.43946186;fill:#ffffff;stroke:none" />
      </g>
      <path
         style="opacity:0.08968608;fill:#000000;stroke:none"
         d="m 1994.1848,445.13184 c 0.024,0.22638 0.125,0.96875 0.125,0.96875 177.5329,125.9211 7.5915,425.66696 -157.6876,308.96875 31.6292,39.77501 78.321,64.9375 130.4063,64.9375 95.2691,0 172.5,-84.17047 172.5,-188 0,-92.79534 -61.6918,-169.88114 -142.8125,-185.21875 -0.9603,-0.50323 -1.8054,-1.0575 -2.5312,-1.65625 z"
         id="path4828"
         inkscape:connector-curvature="0"
         sodipodi:nodetypes="cccsscc" />
      <path
         style="opacity:0.33632286;fill:#ffffff;fill-opacity:1;fill-rule:nonzero;stroke:none"
         d="m 1853.5285,500.00684 c 9.7657,11.4496 26.5793,20.71452 51.3232,10.38388 0,0 -20.478,11.27802 -33.7729,6.20191 -12.7761,-4.87802 -17.5503,-16.58579 -17.5503,-16.58579 z"
         id="path4842"
         inkscape:connector-curvature="0"
         sodipodi:nodetypes="ccsc" />
      <path
         style="opacity:0.33632286;fill:#ffffff;fill-opacity:1;fill-rule:nonzero;stroke:none"
         d="m 1834.9035,511.19434 c -25.1839,32.6757 -40.375,74.79968 -40.375,120.8125 0,48.81054 17.0766,93.26829 45.0625,126.6875 -51.5072,-80.00939 -38.1168,-179.15213 -4.6875,-247.5 z"
         id="path4844"
         inkscape:connector-curvature="0" />
      <path
         style="font-size:medium;font-style:normal;font-variant:normal;font-weight:normal;font-stretch:normal;text-indent:0;text-align:start;text-decoration:none;line-height:normal;letter-spacing:normal;word-spacing:normal;text-transform:none;direction:ltr;block-progression:tb;writing-mode:lr-tb;text-anchor:start;baseline-shift:baseline;color:#000000;fill:#000000;fill-opacity:1;fill-rule:nonzero;stroke:none;stroke-width:15;marker:none;visibility:visible;display:inline;overflow:visible;enable-background:accumulate;font-family:Sans;-inkscape-font-specification:Sans"
         d="m 1937.5849,550.23907 c -23.685,17.73509 -60.0512,29.3882 -76.9001,31.33027 0,0 -13.272,11.48905 -9.2727,16.28921 8.2207,9.86707 58.797,-13.89704 79.6164,-33.85171 3.6697,-3.51725 6.5564,-13.76777 6.5564,-13.76777 z"
         id="path4846"
         inkscape:connector-curvature="0"
         sodipodi:nodetypes="ccsac" />
      <path
         style="fill:#ffffff;fill-opacity:1;fill-rule:nonzero;stroke:none"
         d="m 1906.466,571.25684 c -5.837,0.43877 -6.5608,8.71786 -6.4062,14.1875 4.5019,-2.43326 8.9421,-5.047 13.125,-7.75 -1.302,-3.40274 -3.4083,-6.68635 -6.7188,-6.4375 z"
         id="path4848"
         inkscape:connector-curvature="0" />
      <path
         style="opacity:0.21524664;fill:#ffffff;fill-opacity:1;fill-rule:nonzero;stroke:none"
         d="m 1851.9035,589.88184 c -23.3266,33.53776 60.5486,-1.03578 77.5,-22.25 0,0 -17.2119,27.29692 -72.875,41.25 -24.5318,6.1494 -4.625,-19 -4.625,-19 z"
         id="path4850"
         inkscape:connector-curvature="0"
         sodipodi:nodetypes="ccsc" />
      <path
         style="opacity:0.13004485;fill:#000000;fill-opacity:1;fill-rule:nonzero;stroke:none"
         d="m 1937.1249,537.42532 c 8.3263,15.86246 -49.6323,34.51973 -60.7983,36.40232 0,0 32.5358,-12.38255 46.6127,-22.31043 5.4468,-3.84138 14.1856,-14.09189 14.1856,-14.09189 z"
         id="path4852"
         inkscape:connector-curvature="0"
         sodipodi:nodetypes="ccac" />
    </g>
  </g>
</svg>
